<svg width="60" height="60" viewBox="0 0 60 60" fill="none" xmlns="http://www.w3.org/2000/svg">
<g clip-path="url(#clip0_41_970)">
<path d="M29.881 25.8754C24.3336 25.8754 18.7522 25.8754 13.2049 25.8754C9.52931 25.8754 8.61042 27.069 8.61042 31.7155C8.61042 40.2412 8.54236 48.7669 8.64445 57.2926C8.67849 59.5519 8.06589 60.1487 6.39828 60.0208C4.83277 59.8929 3.23322 59.9355 1.63368 60.0208C0.510591 60.0634 -0.0339355 59.5945 -0.0339355 58.1025C9.73528e-05 44.9729 9.73528e-05 31.8434 9.73528e-05 18.6712C9.73528e-05 16.1561 0.987051 14.5363 2.7908 13.5984C11.299 9.16509 19.8072 4.68911 28.3835 0.383639C29.3365 -0.0852735 30.6978 -0.0852735 31.6167 0.426267C40.1249 4.73174 48.565 9.16509 57.0392 13.5558C58.9791 14.5789 59.932 16.3267 59.932 18.9696C59.898 31.886 59.898 44.8024 59.9661 57.7615C59.9661 59.3813 59.6257 60.106 58.2644 60.0208C56.4947 59.9355 54.759 59.9355 52.9893 60.0208C51.628 60.106 51.2536 59.3387 51.2536 57.7188C51.2877 48.8521 51.2877 39.9428 51.2877 31.0761C51.2877 27.2822 50.3007 25.9181 47.2037 25.9181C41.4522 25.8328 35.6666 25.8754 29.881 25.8754Z" fill="#2FA26C"/>
<path d="M12.252 30.0956C13.0348 30.0956 13.6134 30.0956 14.1579 30.0956C24.7081 30.0956 35.2242 30.1383 45.7744 30.053C47.374 30.053 47.9866 30.5219 47.9185 32.6107C47.7484 38.1098 48.3609 37.172 44.1749 37.2146C34.1352 37.2572 24.1295 37.172 14.0898 37.2572C12.4222 37.2572 11.8436 36.703 12.0478 34.6142C12.218 33.2075 12.184 31.7155 12.252 30.0956Z" fill="#2FA26C"/>
<path d="M29.915 48.639C24.5378 48.639 19.1266 48.5964 13.7494 48.6816C12.354 48.7242 12.0137 48.1274 12.0137 46.4649C12.0137 41.52 11.9796 41.52 15.9275 41.52C25.8991 41.52 35.8707 41.5627 45.8764 41.4774C47.4419 41.4774 47.9184 42.0742 47.9184 43.9925C47.8503 48.639 47.9184 48.639 44.2428 48.639C39.4442 48.639 34.6796 48.639 29.915 48.639Z" fill="#2FA26C"/>
<path d="M29.9832 52.6887C35.3604 52.6887 40.7376 52.7314 46.1148 52.6461C47.5101 52.6035 47.8845 53.2429 47.8504 54.8628C47.7824 60.7881 48.3609 59.9356 43.9707 59.9356C34.1352 59.9782 24.2656 59.9356 14.4301 59.9356C12.0478 59.9356 12.0478 59.9355 12.0478 57.0794C12.0819 51.964 11.5033 52.7313 15.5192 52.6887C20.3518 52.6887 25.1845 52.6887 29.9832 52.6887Z" fill="#2FA26C"/>
</g>
<defs>
<clipPath id="clip0_41_970">
<rect width="60" height="60" fill="white"/>
</clipPath>
</defs>
</svg>
