<svg width="60" height="60" viewBox="0 0 60 60" fill="none" xmlns="http://www.w3.org/2000/svg">
<g clip-path="url(#clip0_41_954)">
<path d="M3.32083 49.1281C3.32083 46.9116 3.37961 44.695 3.26206 42.5115C3.23267 41.9822 2.76245 41.2544 2.32162 41.0559C0.852181 40.3281 0.0586852 39.1702 0.0292965 37.3837C-9.22186e-05 33.6453 -0.0294809 29.8739 0.0292965 26.1355C0.117463 22.1656 2.90939 19.0227 6.40665 18.9565C8.84592 18.8903 11.3146 18.8903 13.7538 18.9565C15.958 19.0227 17.6331 20.2467 18.8381 22.331C19.2495 23.0588 19.2201 23.522 18.603 24.1505C16.3107 26.4994 14.1065 28.9145 11.8436 31.2634C9.16919 34.0754 9.11041 37.1521 11.726 39.9642C12.7546 41.089 13.6657 42.3461 14.8118 43.2724C16.34 44.5296 16.7515 46.0845 16.6339 48.1356C16.487 50.6169 16.6339 53.0981 16.6045 55.5793C16.5458 58.6891 15.3702 59.9793 12.6077 59.9793C10.7562 59.9793 8.8753 59.9793 7.02381 59.9793C4.7021 59.9462 3.52656 58.8545 3.37961 56.2409C3.23267 53.8921 3.35022 51.5101 3.35022 49.1281H3.32083Z" fill="#2FA26C"/>
<path d="M59.9823 31.5942C59.9823 33.4799 60.0116 35.3326 59.9823 37.2183C59.9529 39.4017 59.4239 40.295 57.5724 41.0228C56.6907 41.3536 56.6907 42.0484 56.6907 42.8424C56.6907 47.077 56.6907 51.3447 56.6907 55.5793C56.6907 58.7883 55.6327 59.9462 52.782 59.9793C50.813 59.9793 48.8733 60.0124 46.9043 59.9793C44.8765 59.9462 43.6715 58.7222 43.5833 56.4394C43.4658 52.9657 43.4952 49.492 43.554 46.0183C43.554 45.4559 43.9654 44.7943 44.3475 44.3642C45.6699 42.8424 47.0806 41.3867 48.4619 39.8649C50.9011 37.2183 50.9305 34.2077 48.4325 31.528C46.1696 29.0799 43.9066 26.6317 41.5849 24.2829C40.8208 23.522 40.8502 22.9265 41.3792 22.0663C42.5841 20.1144 44.2299 19.0227 46.3165 18.9565C48.8145 18.8903 51.3126 18.8903 53.8106 18.9565C57.1315 19.0558 59.8353 22.0663 59.9529 25.8378C60.0116 27.7235 59.9529 29.6754 59.9823 31.5942C59.9529 31.5942 59.9529 31.5942 59.9823 31.5942Z" fill="#2FA26C"/>
<path d="M37.7352 45.1582C37.412 44.5296 36.9418 44.0333 36.8536 43.4378C36.7066 42.5777 36.736 41.6845 36.7948 40.7912C36.8536 39.7656 36.5891 39.3025 35.5899 39.3025C31.9163 39.3686 28.2427 39.3686 24.5691 39.3025C23.5699 39.3025 23.276 39.6995 23.3348 40.7581C23.3936 41.6514 23.3936 42.5446 23.3054 43.4048C23.1291 44.9266 22.1298 45.3897 21.1306 44.3972C18.7207 41.8829 16.3696 39.3356 13.9892 36.7882C13.2838 36.0273 13.3426 35.2333 14.0185 34.5055C16.3696 32.0242 18.6914 29.5099 21.0718 27.0618C22.0711 26.0362 23.0409 26.4663 23.276 27.955C23.3348 28.4513 23.3054 28.9475 23.3054 29.4438C23.3642 32.1897 22.8939 32.0573 25.7153 32.0573C28.7423 32.0573 31.7693 32.0573 34.8258 32.0573C36.7654 32.0573 36.7654 32.0573 36.7654 29.94C36.7654 29.2122 36.736 28.4844 36.8536 27.7896C37.0887 26.4663 37.9998 26.0362 38.8814 26.9626C41.3501 29.4769 43.7599 32.0573 46.111 34.704C46.4343 35.0679 46.4637 36.325 46.1698 36.6559C43.7893 39.3686 41.3207 41.9491 38.852 44.5296C38.6463 44.7281 38.2936 44.8273 37.7352 45.1582Z" fill="#2FA26C"/>
<path d="M56.632 7.44367C56.632 11.5129 53.7519 14.7881 50.1371 14.8212C46.5223 14.8542 43.5834 11.4467 43.6128 7.27825C43.6422 3.30831 46.581 1.52588e-05 50.0783 1.52588e-05C53.7225 1.52588e-05 56.632 3.27522 56.632 7.44367Z" fill="#2FA26C"/>
<path d="M9.81582 14.8211C6.17162 14.6888 3.37969 11.3143 3.46785 7.11281C3.55602 3.10978 6.64183 -0.165424 10.2273 -9.27064e-06C13.7833 0.165405 16.6928 3.70527 16.5458 7.64214C16.3695 11.7113 13.3425 14.9535 9.81582 14.8211Z" fill="#2FA26C"/>
</g>
<defs>
<clipPath id="clip0_41_954">
<rect width="60" height="60" fill="white"/>
</clipPath>
</defs>
</svg>
