<svg width="60" height="36" viewBox="0 0 60 36" fill="none" xmlns="http://www.w3.org/2000/svg">
<g clip-path="url(#clip0_41_961)">
<path d="M0.130058 6.04769C1.60405 6.04769 3.07803 6.04769 4.55202 6.04769C6.32948 6.04769 8.08526 6.00434 9.86272 6.06936C10.6864 6.09104 11.2934 5.80925 11.8569 5.22399C13.0058 4.01012 14.2197 2.86127 15.3685 1.66908C16.474 0.563584 17.7529 0 19.3353 0C26.3801 0.0216763 33.4249 0.0216763 40.4697 0C42.1821 0 43.526 0.671965 44.6749 1.88584C45.8671 3.14306 47.0593 4.40029 48.3165 5.59249C48.6416 5.89595 49.2269 6.02601 49.6821 6.02601C52.7601 6.06936 55.8165 6.06936 58.8945 6.02601C59.7616 6.00434 60 6.3078 60 7.15318C59.9783 14.3714 59.9783 21.6113 60 28.8295C60 29.6965 59.7182 29.9566 58.8728 29.9133C57.3555 29.8483 55.8382 29.9133 54.3208 29.8916C52.7168 29.8699 51.7197 29.1763 51.2645 27.659C51.091 27.1171 50.8526 26.9003 50.289 26.922C48.9884 26.9436 47.6879 26.8786 46.3873 26.9653C46.0188 26.987 45.5853 27.3121 45.3468 27.6373C43.9812 29.3497 42.789 31.1922 41.315 32.8179C40.2529 34.0101 38.6922 34.3136 37.1098 33.9234C36.3945 33.75 35.9176 33.8801 35.3757 34.3786C33.4032 36.2428 30.7153 36.4595 28.4176 34.9205C27.8324 34.5304 27.4639 34.5737 26.8786 34.8772C23.6705 36.6113 20.3107 36.2211 17.5578 33.7717C15.2601 31.7341 12.9841 29.6749 10.6864 27.6373C10.448 27.4205 10.2095 27.1821 9.92775 27.052C9.40751 26.8353 8.99567 26.8136 8.7789 27.5506C8.34538 29.1546 7.34827 29.8699 5.72254 29.8916C4.09682 29.9133 2.4711 29.8699 0.845376 29.8916C0.281792 29.8916 0 29.7616 0 29.1113C0.0216763 21.5679 0.0216763 14.0246 0.0216763 6.45954C0.0216763 6.39451 0.0650289 6.32948 0.130058 6.04769ZM27.3988 28.4176C28.4393 29.3064 29.4147 30.1301 30.3902 30.9754C31.4523 31.8642 31.9292 31.8208 32.8396 30.7803C33.685 29.8049 34.5087 28.8078 35.3757 27.7673C36.091 28.3309 36.763 28.8295 37.3916 29.328C37.9552 29.7832 38.4538 29.7182 38.8873 29.1546C39.5592 28.3093 40.2095 27.4422 40.9249 26.6185C41.5535 25.9032 41.4017 25.3829 40.7081 24.8194C37.7818 22.4783 34.8555 20.1373 31.9509 17.7312C31.1705 17.0809 30.5853 16.9942 29.7399 17.7095C26.987 20.0072 23.4321 19.8555 20.8092 17.4277C18.1431 14.9566 18.1431 10.5564 20.8743 7.8685C22.0014 6.76301 23.1936 5.74422 24.5809 4.46532C23.9523 4.40029 23.6055 4.35694 23.2803 4.33526C22.2399 4.31358 21.1777 4.37861 20.1373 4.31358C19.2269 4.27023 18.5549 4.5737 17.948 5.24567C17.0159 6.26445 15.9321 7.1315 15.065 8.17197C13.7211 9.81936 12.1604 10.7731 9.9711 10.3613C9.1474 10.2095 8.93064 10.6214 8.93064 11.4017C8.97399 14.7616 8.97399 18.1214 8.93064 21.4812C8.90896 22.3699 9.25578 22.6734 10.0795 22.565C11.1633 22.4133 11.9653 22.8468 12.7457 23.5838C15.2818 25.9899 17.9046 28.3309 20.5275 30.6286C22.1965 32.0809 24.3858 31.8858 25.8165 30.2168C26.3367 29.6749 26.8136 29.0896 27.3988 28.4176ZM51.1344 16.409C51.1344 14.7182 51.091 13.0058 51.1561 11.315C51.1777 10.5347 50.896 10.2962 50.159 10.3396C49.2919 10.3829 48.4249 10.3829 47.5578 10.3396C47.1893 10.3179 46.7558 10.1879 46.5173 9.94942C44.9133 8.38873 43.396 6.74133 41.7702 5.20231C41.315 4.76879 40.6214 4.42197 40.0361 4.37861C37.6517 4.29191 35.2673 4.24856 32.8829 4.37861C31.9509 4.44364 30.8671 4.81214 30.1517 5.3974C27.9841 7.19653 25.9465 9.12572 23.9306 11.0983C23.5188 11.5101 23.2803 12.2905 23.2803 12.9191C23.2587 13.8512 23.8656 14.5448 24.7543 14.8699C25.6864 15.1951 26.5535 14.8916 27.2471 14.2413C28.8512 12.789 30.4335 11.2934 32.0376 9.84104C33.2731 8.71387 33.6633 8.7789 35.0289 10.2746C36.1561 11.5101 36.1994 11.9436 34.9422 13.0058C34.1835 13.6561 34.2269 14.0462 34.9856 14.6532C38.0853 17.1243 41.1633 19.6604 44.263 22.1315C44.5448 22.3483 44.9783 22.5 45.3251 22.5C46.9509 22.5434 48.5766 22.5 50.2023 22.5217C50.896 22.5434 51.1561 22.2832 51.1561 21.5679C51.1127 19.8772 51.1344 18.1431 51.1344 16.409ZM57.1387 25.448C57.1604 24.5593 56.4884 23.8656 55.578 23.8656C54.776 23.8656 54.039 24.5593 53.9957 25.3613C53.9523 26.2066 54.646 26.9436 55.5347 26.9653C56.4668 27.0087 57.1171 26.4017 57.1387 25.448ZM4.50867 26.9653C5.41908 26.9436 6.06936 26.2717 6.02601 25.3613C5.98266 24.5159 5.31069 23.8656 4.48699 23.8656C3.57659 23.8439 2.90462 24.5376 2.90462 25.4263C2.9263 26.3367 3.57659 26.987 4.50867 26.9653Z" fill="#2FA26C"/>
</g>
<defs>
<clipPath id="clip0_41_961">
<rect width="60" height="35.9393" fill="white"/>
</clipPath>
</defs>
</svg>
