<svg width="60" height="60" viewBox="0 0 60 60" fill="none" xmlns="http://www.w3.org/2000/svg">
<g clip-path="url(#clip0_41_968)">
<path d="M30.0615 0.030786C45.5225 -0.461891 60.0615 12.6556 60 29.9917C59.9385 46.7735 46.5676 60.0142 29.8463 60.0142C13.2479 60.0142 0 46.5272 0 29.7146C0 12.902 14.3238 -0.523476 30.0615 0.030786ZM45.0307 18.4446C45.707 18.4446 46.3525 18.4446 47.0287 18.4446C48.2889 18.4754 48.5041 19.2452 48.5041 20.3229C48.5041 21.4314 48.1352 22.1089 46.9365 22.0781C45.7992 22.0781 44.6926 22.0473 43.5553 22.1089C42.4795 22.1705 40.7582 23.7717 40.8197 24.6646C40.9734 26.2658 42.2336 26.2043 43.3709 26.1427C44.877 26.0811 45.8299 26.9741 46.4447 28.0826C47.0594 29.1911 46.3525 30.1149 45.4611 30.8539C44.5082 31.6545 44.416 32.5167 45.3689 33.4405C46.5676 34.6414 47.6742 35.9038 48.9037 37.0739C50.5943 38.7059 53.1455 37.9669 53.668 35.7499C54.375 32.7014 54.5287 29.6222 54.1598 26.4506C52.8381 15.0574 42.2029 5.48103 30.707 5.48103C27.8484 5.48103 25.2664 8.15996 25.3586 10.9929C25.3893 11.9782 25.666 12.6248 26.7418 12.5941C27.7869 12.5633 29.0779 13.0251 29.416 11.3316C29.8156 9.36086 30.9221 8.49867 32.9816 8.65264C33.627 8.71422 34.6414 9.02214 34.7336 9.42244C34.8873 9.97671 34.5184 10.8389 34.0881 11.3932C32.3361 13.641 29.9693 14.9651 27.1721 15.6117C26.5266 15.7657 25.5738 16.2275 25.4816 16.6894C25.1434 18.7833 23.6373 19.9226 22.3156 21.2775C21.2705 22.3552 20.8709 25.8348 21.7316 27.0664C22.0389 27.5283 22.6537 27.9286 23.207 28.021C26.4344 28.6061 27.2029 28.175 28.8627 25.3421C28.9857 25.1265 29.0779 24.8494 29.2623 24.6954C29.877 24.0796 30.7377 23.9872 30.9836 24.8494C31.4447 26.4198 32.582 26.1119 33.6885 26.1735C34.7643 26.2043 35.2561 25.6808 35.4098 24.6646C35.4406 24.3875 35.9631 24.1412 36.332 23.9872C37.2848 23.6177 38.2377 23.2482 39.2213 22.9403C40.4201 22.5708 41.127 21.8317 41.127 20.5077C41.127 19.0912 41.8955 18.4754 43.2479 18.4446C43.8012 18.4446 44.416 18.4446 45.0307 18.4446ZM31.3525 54.1637C39.1598 54.5332 48.7807 47.7589 50.9938 41.5388C48.6578 41.9391 47.5205 40.184 46.0451 38.9831C45.2459 38.3364 44.1701 37.6282 43.2479 37.659C41.2193 37.7822 39.8668 36.8584 38.5758 35.5651C38.0225 35.0109 37.4078 34.5798 36.8238 34.0563C33.6578 31.2234 28.8627 30.6999 25.1742 32.8246C23.6373 33.7176 22.1004 34.6414 20.5635 35.5959C17.2131 37.7206 15.9836 43.6635 18.5348 46.7119C20.9016 49.514 23.7602 51.7311 27.8484 51.5155C30.6148 51.3924 30.6455 51.5155 31.3525 54.1637ZM21.5471 14.9651C21.5471 14.7187 21.6086 14.4108 21.5471 14.1953C21.3012 13.641 21.1168 12.8096 20.6865 12.6248C20.2561 12.4401 19.3955 12.6864 18.9652 13.0559C17.9508 13.8873 16.998 14.8419 16.1066 15.8272C15.2459 16.7818 15.4611 17.9211 16.5676 18.2906C18.9959 19.0912 21.9775 17.5824 21.5471 14.9651Z" fill="#2FA26C"/>
</g>
<defs>
<clipPath id="clip0_41_968">
<rect width="60" height="60" fill="white"/>
</clipPath>
</defs>
</svg>
