<svg width="60" height="60" viewBox="0 0 60 60" fill="none" xmlns="http://www.w3.org/2000/svg">
<g clip-path="url(#clip0_41_964)">
<path d="M20.5524 57.01C14.4074 57.01 8.28539 57.01 2.14039 57.01C0.506329 57.01 0 56.4965 0 54.8629C0 51.8289 0 48.7949 0 45.7609C0 44.1972 0.552359 43.497 2.07135 43.7071C5.79977 44.1972 8.81473 43.0769 11.4384 40.3463C14.0852 37.6157 17.5144 36.7756 21.2198 36.8222C26.214 36.8922 31.1853 36.8222 36.1795 36.8456C38.8262 36.8689 40.3913 38.8293 39.7238 41.1632C39.3326 42.5168 37.9286 43.4737 36.2255 43.497C33.6939 43.5204 31.1623 43.497 28.6306 43.497C27.2497 43.497 26.5593 44.1038 26.5593 45.2474C26.5593 46.391 27.2727 47.0211 28.6306 47.0211C32.7043 47.0445 36.7549 47.0445 40.8285 47.0211C42.4166 47.0211 43.7975 46.3677 45.0403 45.3641C48.0092 42.9602 50.9551 40.5564 53.9471 38.1525C54.4764 37.7324 55.0518 37.289 55.6962 37.0556C57.2152 36.5188 58.8032 37.1956 59.5397 38.5493C60.3222 39.9729 60.0921 41.5366 58.7802 42.6335C56.2025 44.7806 53.5788 46.8578 50.9781 48.9816C48.3774 51.1054 45.7768 53.2058 43.1761 55.3296C41.8182 56.4499 40.2762 56.9633 38.504 56.9633C32.5201 56.9867 26.5362 57.01 20.5524 57.01Z" fill="#2FA26C"/>
<path d="M30.1495 7.0657C30.5638 6.52892 30.84 6.06215 31.2082 5.68873C34.5684 2.28132 39.1944 2.14129 42.5086 5.31532C45.7077 8.39599 45.9148 13.6471 42.8768 17.0079C39.5396 20.672 36.1104 24.2195 32.7272 27.8136C32.405 28.1403 32.1058 28.4904 31.7836 28.8405C30.4718 30.3108 29.5742 30.2875 28.2393 28.8638C24.8331 25.1997 21.4039 21.5822 17.9746 17.9881C16.7548 16.7045 15.6961 15.3509 15.3509 13.5538C14.2232 7.95256 17.3993 3.44824 22.4625 3.02815C24.6029 2.84144 26.6282 3.58827 28.2393 5.12861C28.7917 5.66539 29.321 6.22552 30.1495 7.0657Z" fill="#2FA26C"/>
</g>
<defs>
<clipPath id="clip0_41_964">
<rect width="60" height="60" fill="white"/>
</clipPath>
</defs>
</svg>
