<svg width="61" height="61" viewBox="0 0 61 61" fill="none" xmlns="http://www.w3.org/2000/svg">
<g clip-path="url(#clip0_3_1737)">
<path d="M41.6912 13.4388C41.6912 15.3321 41.6788 17.213 41.7036 19.1063C41.716 19.7415 41.468 20.1401 40.9226 20.4639C37.7862 22.3323 34.6623 24.2256 31.5507 26.1189C31.0052 26.4552 30.5466 26.4303 30.0011 26.1065C26.9019 24.2132 23.8027 22.3448 20.6788 20.4889C20.1209 20.1526 19.8606 19.7664 19.8606 19.0938C19.8854 15.3197 19.873 11.5455 19.8606 7.77141C19.8606 7.16107 20.0961 6.77494 20.6044 6.46354C23.7532 4.5827 26.9019 2.68941 30.0259 0.771201C30.5589 0.447348 31.0052 0.459804 31.5135 0.771201C34.6499 2.67695 37.7862 4.57024 40.9474 6.46354C41.468 6.77494 41.6912 7.17352 41.6788 7.78386C41.6664 9.6647 41.6912 11.558 41.6912 13.4388ZM22.7118 7.52229C25.3399 9.31594 27.9185 11.0722 30.4846 12.8409C30.7821 13.0527 30.968 12.9281 31.1912 12.7662C32.4309 11.9192 33.6705 11.0722 34.9226 10.2128C36.2242 9.32839 37.5135 8.43157 38.8647 7.52229C36.2242 5.92794 33.6457 4.38341 31.0672 2.82642C30.8565 2.70186 30.7077 2.70186 30.5094 2.82642C27.9308 4.38341 25.3523 5.92794 22.7118 7.52229ZM21.8565 9.3533C21.8565 12.5296 21.8565 15.5688 21.8441 18.608C21.8441 18.9194 22.0548 18.9692 22.2408 19.0813C24.3978 20.3892 26.5424 21.6846 28.6994 22.98C29.0218 23.1793 29.3565 23.3662 29.6664 23.553C29.7284 23.5032 29.7656 23.4907 29.7656 23.4907C29.778 20.6757 29.778 17.8482 29.7904 15.0332C29.7904 14.809 29.6912 14.6969 29.53 14.5848C27.0135 12.8783 24.497 11.1469 21.8565 9.3533ZM31.7738 23.5032C31.9598 23.5779 32.0342 23.4907 32.1085 23.4409C34.5259 21.9836 36.9432 20.5138 39.373 19.0813C39.6953 18.8945 39.7077 18.6578 39.7077 18.3714C39.7077 15.5563 39.7077 12.7288 39.6953 9.91382C39.6953 9.76435 39.7821 9.58996 39.5837 9.45295C37.0672 11.1719 34.5507 12.9032 32.0218 14.6097C31.7614 14.7841 31.7738 14.9958 31.7738 15.2449C31.7738 17.3873 31.7738 19.5173 31.7738 21.6597C31.7738 22.2701 31.7738 22.9053 31.7738 23.5032Z" fill="white"/>
<path d="M55.6128 47.2939C56.2698 47.3438 56.8524 47.2815 57.4227 47.4185C59.1706 47.8295 60.4847 49.3492 60.5095 51.1428C60.5467 54.045 60.5095 56.9472 60.5343 59.8619C60.5343 60.1858 60.4475 60.273 60.1252 60.273C58.5508 60.3103 58.5508 60.3228 58.5508 58.7409C58.5508 56.3369 58.5508 53.9329 58.5508 51.5165C58.5508 50.1214 57.745 49.3118 56.369 49.3118C53.8524 49.3118 51.3359 49.3118 48.807 49.3118C47.4558 49.3118 46.65 50.1214 46.65 51.4791C46.65 54.2194 46.6376 56.9597 46.6624 59.7C46.6624 60.1484 46.5756 60.2979 46.1045 60.2854C44.6789 60.2481 44.6665 60.273 44.6665 58.8405C44.6665 56.4366 44.6665 54.0326 44.6665 51.6161C44.6665 48.963 46.3029 47.3188 48.9558 47.3064C49.1293 47.3064 49.3029 47.3064 49.5384 47.3064C47.1086 44.5661 47.0343 41.6514 49.2905 39.5962C51.2863 37.7901 54.3359 37.9271 56.2078 39.8827C57.8442 41.639 58.3277 44.8899 55.6128 47.2939ZM52.6128 46.3224C54.2615 46.3099 55.588 44.9398 55.5632 43.2831C55.5384 41.6639 54.1996 40.3435 52.5632 40.356C50.9144 40.3685 49.588 41.7386 49.6128 43.3952C49.6376 45.0145 50.9888 46.3348 52.6128 46.3224Z" fill="white"/>
<path d="M27.7697 47.3189C24.9432 44.8028 25.5755 41.4646 27.2862 39.7706C29.2573 37.8275 32.4061 37.8524 34.3399 39.8578C36.0631 41.6265 36.4846 44.9149 33.8193 47.2815C34.4391 47.3811 35.0341 47.2815 35.6044 47.4185C37.3771 47.842 38.6788 49.3741 38.6912 51.2051C38.716 54.0824 38.6912 56.9722 38.7036 59.8495C38.7036 60.1609 38.6416 60.2605 38.3069 60.273C36.7325 60.3103 36.7325 60.3228 36.7325 58.7534C36.7325 56.3494 36.7325 53.9454 36.7325 51.5414C36.7325 50.1214 35.9267 49.3243 34.5011 49.3243C32.0218 49.3243 29.5424 49.3243 27.0755 49.3243C25.6127 49.3243 24.8441 50.109 24.8441 51.6037C24.8441 54.3191 24.8317 57.0344 24.8565 59.7498C24.8565 60.1858 24.7449 60.2979 24.311 60.2854C22.8606 60.2605 22.8606 60.2854 22.8606 58.8032C22.8606 56.4366 22.8606 54.0699 22.8606 51.7033C22.8606 48.9257 24.4598 47.3189 27.249 47.3064C27.373 47.3189 27.5218 47.3189 27.7697 47.3189ZM30.7945 40.3436C29.1705 40.3311 27.8193 41.6639 27.8069 43.2831C27.7821 44.9398 29.1209 46.3099 30.7573 46.3224C32.4061 46.3348 33.7573 44.9771 33.7449 43.3205C33.7449 41.6888 32.4184 40.356 30.7945 40.3436Z" fill="white"/>
<path d="M30.4598 30.3913C26.5797 30.329 22.5384 29.6813 18.8194 27.6385C17.2822 26.7915 15.9185 25.7203 14.9516 24.2256C13.3276 21.722 13.7367 18.4461 15.8937 16.3909C16.1417 16.1542 16.2904 16.1293 16.526 16.4033C16.8359 16.7646 17.3441 17.051 17.4557 17.4621C17.5673 17.8731 16.9598 18.1347 16.7119 18.4959C15.5962 20.1775 15.6458 21.9587 16.9227 23.5655C18.1871 25.1474 19.8979 26.1314 21.7574 26.7915C28.3152 29.1083 34.8111 29.0336 41.2078 26.1812C42.3855 25.6581 43.4268 24.9107 44.3069 23.9641C46.0797 22.0458 46.0797 19.7664 44.2822 17.8607C44.0466 17.6116 43.9846 17.4745 44.2698 17.2379C44.5177 17.0261 44.7532 16.777 44.9516 16.5154C45.2243 16.1418 45.4226 16.1418 45.7574 16.4905C48.0507 18.8696 48.2615 22.2078 46.216 24.7986C44.5053 26.9535 42.1747 28.1492 39.6458 29.0211C36.7574 30.0052 33.7822 30.3664 30.4598 30.3913Z" fill="white"/>
<path d="M14.1457 26.8165C14.3441 26.9659 14.53 27.103 14.7036 27.2275C15.7077 27.9873 15.7077 27.9873 14.9515 29.0087C13.34 31.1636 11.7284 33.306 10.1416 35.4733C9.88128 35.8221 9.72012 35.9591 9.29863 35.6352C8.18293 34.7509 8.17054 34.7758 9.0383 33.6174C10.6251 31.4999 12.1995 29.3824 13.7862 27.2649C13.8854 27.1154 14.0094 26.9784 14.1457 26.8165Z" fill="white"/>
<path d="M47.431 26.8289C47.5178 26.9286 47.6045 27.0158 47.6665 27.1029C49.5012 29.5568 51.3236 31.9981 53.1583 34.4519C53.3194 34.6761 53.3566 34.7882 53.1087 34.9875C51.8442 36.0214 51.8566 36.0338 50.8773 34.7259C49.3277 32.6458 47.7657 30.5532 46.2037 28.4731C45.931 28.1119 45.8442 27.8877 46.3029 27.6261C46.6004 27.4517 46.8607 27.2151 47.1459 27.0033C47.2326 26.9535 47.3194 26.9037 47.431 26.8289Z" fill="white"/>
<path d="M27.8069 55.8512C27.8069 57.184 27.7945 58.5043 27.8193 59.8371C27.8193 60.1859 27.7201 60.2731 27.373 60.2855C25.8234 60.298 25.8234 60.3104 25.8234 58.7783C25.8234 56.4491 25.8358 54.1323 25.811 51.8031C25.811 51.392 25.9102 51.2924 26.3193 51.2924C27.8069 51.3048 27.8069 51.2924 27.8069 52.7995C27.8069 53.8084 27.8069 54.8298 27.8069 55.8512Z" fill="white"/>
<path d="M35.7407 55.8512C35.7407 57.184 35.7283 58.5043 35.7531 59.8371C35.7531 60.1859 35.654 60.2731 35.3069 60.2855C33.7573 60.298 33.7573 60.3104 33.7573 58.7783C33.7573 56.4491 33.7697 54.1323 33.7449 51.8031C33.7449 51.392 33.844 51.2924 34.2531 51.2924C35.7407 51.3048 35.7407 51.2799 35.7407 52.7995C35.7407 53.8084 35.7407 54.8298 35.7407 55.8512Z" fill="white"/>
<path d="M5.45567 47.568C2.64162 45.0395 3.26145 41.7013 4.97219 40.0197C6.94327 38.0766 10.092 38.1015 12.0259 40.1069C13.7491 41.8757 14.1705 45.164 11.5053 47.5306C12.1251 47.6303 12.7201 47.5306 13.2904 47.6676C15.0631 48.0911 16.3648 49.6232 16.3772 51.4542C16.4019 54.3315 16.3772 57.2213 16.3895 60.0986C16.3895 60.41 16.3276 60.5097 15.9929 60.5221C14.4185 60.5595 14.4185 60.5719 14.4185 59.0025C14.4185 56.5985 14.4185 54.1945 14.4185 51.7905C14.4185 50.3706 13.6127 49.5734 12.1871 49.5734C9.70773 49.5734 7.22839 49.5734 4.76145 49.5734C3.29864 49.5734 2.53005 50.3581 2.53005 51.8528C2.53005 54.5682 2.51765 57.2836 2.54244 59.999C2.54244 60.4349 2.43087 60.547 1.99699 60.5346C0.53418 60.5097 0.53418 60.5346 0.53418 59.0523C0.53418 56.6857 0.53418 54.3191 0.53418 51.9525C0.53418 49.1748 2.13335 47.568 4.92261 47.5555C5.05897 47.568 5.20773 47.568 5.45567 47.568ZM8.48046 40.5927C6.85649 40.5802 5.50525 41.913 5.49286 43.5323C5.46806 45.1889 6.80691 46.5591 8.44327 46.5715C10.092 46.584 11.4433 45.2263 11.4309 43.5697C11.4309 41.9379 10.1044 40.6052 8.48046 40.5927Z" fill="white"/>
<path d="M5.49294 56.1003C5.49294 57.4331 5.48054 58.7534 5.50533 60.0862C5.50533 60.4349 5.40616 60.5221 5.05905 60.5346C3.50947 60.5471 3.50947 60.5595 3.50947 59.0274C3.50947 56.6982 3.52186 54.3814 3.49707 52.0521C3.49707 51.6411 3.59624 51.5414 4.00533 51.5414C5.49294 51.5539 5.49294 51.5414 5.49294 53.0486C5.49294 54.0575 5.49294 55.0789 5.49294 56.1003Z" fill="white"/>
<path d="M13.4268 56.1003C13.4268 57.4331 13.4144 58.7534 13.4392 60.0862C13.4392 60.4349 13.34 60.5221 12.9929 60.5346C11.4433 60.5471 11.4433 60.5595 11.4433 59.0274C11.4433 56.6982 11.4557 54.3814 11.4309 52.0521C11.4309 51.6411 11.5301 51.5414 11.9392 51.5414C13.4268 51.5539 13.4268 51.529 13.4268 53.0486C13.4268 54.0575 13.4268 55.0789 13.4268 56.1003Z" fill="white"/>
<path d="M49.6128 55.8512C49.6128 57.184 49.6004 58.5043 49.6252 59.8371C49.6252 60.1859 49.526 60.2855 49.1789 60.2855C47.6293 60.3104 47.6293 60.3229 47.6293 58.7783C47.6293 56.4491 47.6417 54.1323 47.6169 51.8031C47.6169 51.392 47.7161 51.2924 48.1252 51.2924C49.6128 51.3048 49.6128 51.2799 49.6128 52.7995C49.6128 53.8084 49.6128 54.8298 49.6128 55.8512Z" fill="white"/>
<path d="M55.5632 55.7266C55.5632 54.3938 55.5756 53.0735 55.5508 51.7407C55.5508 51.3919 55.6376 51.2923 55.9971 51.2923C57.5466 51.2798 57.5466 51.2674 57.5466 52.7994C57.5466 55.1287 57.5343 57.4455 57.559 59.7747C57.559 60.1733 57.4599 60.2854 57.0508 60.2854C55.5632 60.273 55.5632 60.2979 55.5632 58.7783C55.5632 57.7569 55.5632 56.7355 55.5632 55.7266Z" fill="white"/>
<path d="M31.7739 34.3647C31.7739 34.5267 31.7739 34.701 31.7739 34.863C31.7739 36.5071 31.7739 36.5071 30.1004 36.3701C29.8648 36.3452 29.7781 36.2954 29.7905 36.0463C29.8029 34.9252 29.8029 33.8042 29.7905 32.6832C29.7905 32.4465 29.8648 32.3344 30.1004 32.3718C30.1252 32.3718 30.1376 32.3718 30.1624 32.3718C30.6954 32.5213 31.4392 32.0106 31.7367 32.6458C31.9475 33.1191 31.7739 33.7793 31.7739 34.3647Z" fill="white"/>
</g>
<defs>
<clipPath id="clip0_3_1737">
<rect width="60" height="60" fill="white" transform="translate(0.53418 0.534546)"/>
</clipPath>
</defs>
</svg>
