<svg width="61" height="61" viewBox="0 0 61 61" fill="none" xmlns="http://www.w3.org/2000/svg">
<g clip-path="url(#clip0_3_1778)">
<path d="M10.3875 16.8958C13.9347 11.8958 18.6248 8.50573 24.6156 7.01359C30.5802 5.53453 36.2951 6.26751 41.8129 9.02929C41.918 8.79369 42.01 8.55809 42.1019 8.32249C43.2055 5.65233 46.0039 4.16018 48.881 4.72301C51.5874 5.24657 53.6631 7.74657 53.6631 10.5214C53.6631 11.6995 53.1902 12.7335 52.6384 13.7282C52.126 14.6445 51.5611 15.5214 50.9699 16.3853C50.7072 16.7649 50.694 17.0136 50.9436 17.4063C53.6894 21.634 54.9638 26.2806 54.8061 31.2937C54.4514 42.7204 46.017 52.3801 34.7185 54.3434C21.3969 56.6602 8.90291 47.8775 6.55126 34.5136C6.38047 33.5319 6.36733 32.511 6.23595 31.5293C6.1834 31.1628 6.06516 30.757 5.84182 30.4822C4.27843 28.545 2.79387 26.5555 1.66402 24.3173C-0.240946 20.5345 2.42601 16.7256 5.65789 16.0319C7.33952 15.6654 8.90291 15.9665 10.3875 16.8958ZM21.9487 29.6707C27.7161 29.6707 33.3916 29.6707 39.0934 29.6707C39.0934 29.4743 39.0934 29.3303 39.0934 29.1733C38.9358 26.0581 38.2395 23.0607 37.2016 20.1288C37.0571 19.7099 36.7943 19.7885 36.4921 19.8015C33.9828 19.9063 31.4735 20.0633 28.9511 20.0764C27.322 20.0895 25.6798 19.9063 23.9982 19.8015C22.8026 22.9691 22.0406 26.2282 21.9487 29.6707ZM7.83876 31.3199C7.82562 31.4508 7.81248 31.5555 7.81248 31.6602C8.0621 36.1497 9.52038 40.2073 12.1611 43.8591C12.4238 44.2256 12.6472 44.0686 12.9362 43.9769C14.8806 43.3487 16.825 42.6942 18.7956 42.1445C19.9386 41.8172 21.121 41.6602 22.3428 41.4246C21.1604 38.1261 20.451 34.7754 20.3327 31.3199C16.1287 31.3199 12.0034 31.3199 7.83876 31.3199ZM53.2427 31.333C49.0387 31.333 44.8871 31.333 40.6962 31.333C40.578 34.8277 39.8423 38.1654 38.673 41.4638C42.1414 41.9743 45.4521 42.7858 48.6314 44.1864C51.5086 40.3251 53.0457 36.0843 53.2427 31.333ZM47.6723 20.5084C47.4227 20.2335 47.1994 19.9979 46.9892 19.7492C46.5031 19.1864 46.109 18.3356 45.5178 18.1523C44.9266 17.956 44.112 18.4403 43.3894 18.6104C41.8392 18.9508 40.2889 19.278 38.6861 19.6183C39.8685 22.8775 40.578 26.2282 40.6962 29.6837C44.9134 29.6837 49.0649 29.6837 53.2296 29.6837C53.0457 25.5476 51.8764 21.7649 49.6167 18.257C48.973 19.0162 48.3424 19.7361 47.6723 20.5084ZM22.2771 19.5398C19.2686 19.0816 16.3389 18.4141 13.5274 17.2885C12.2924 16.7911 12.2924 16.8042 11.6356 17.9822C11.6356 18.0084 11.6356 18.0214 11.6487 18.0476C11.6881 18.1262 11.7407 18.1916 11.7932 18.2701C13.1464 20.1549 13.4748 22.1837 12.3581 24.2256C11.4122 25.9272 10.2561 27.5241 9.20508 29.1733C9.09998 29.3303 8.99488 29.4743 8.8635 29.6707C12.726 29.6707 16.5228 29.6707 20.2408 29.6707C20.4904 27.9298 20.648 26.2413 20.9765 24.579C21.3181 22.9036 21.8304 21.2544 22.2771 19.5398ZM28.7146 8.03453C24.5631 7.57641 15.7083 11.9874 13.5537 15.5738C13.6588 15.6262 13.7507 15.6654 13.8427 15.7178C16.5622 16.8434 19.4131 17.4979 22.3165 17.956C22.8158 18.0345 23.026 17.9429 23.2362 17.4586C24.5894 14.278 26.3104 11.3068 28.373 8.51882C28.4913 8.37484 28.5832 8.20469 28.7146 8.03453ZM47.5804 45.4822C47.3176 45.3513 47.1468 45.2597 46.9629 45.1942C44.2828 44.1471 41.5107 43.4795 38.673 43.0476C38.2263 42.9822 38.0293 43.0738 37.8453 43.5057C36.479 46.6994 34.7448 49.6968 32.6822 52.4848C32.5771 52.6288 32.4851 52.7989 32.2881 53.0869C38.4497 52.4979 43.442 49.9586 47.5804 45.4822ZM13.4617 45.4691C17.6132 49.9586 22.6056 52.511 28.6358 53.0738C28.6358 52.956 28.6489 52.9036 28.6358 52.8775C26.4155 49.8932 24.5499 46.6994 23.0654 43.2832C23.0128 43.1523 22.7238 43.0345 22.5793 43.0476C21.7385 43.1654 20.8977 43.2963 20.0568 43.4665C17.8234 43.9115 15.6426 44.5005 13.4617 45.4691ZM24.9835 41.1366C24.1821 37.8382 24.839 35.6523 27.0724 34.0816C29.0693 32.6811 31.71 32.6157 33.7464 33.9246C34.7842 34.5921 35.5594 35.4953 36.0455 36.6209C36.6761 38.0869 36.6892 39.579 36.0323 41.045C36.9914 41.3722 37.0439 41.3853 37.2935 40.5214C37.7796 38.846 38.292 37.1837 38.6467 35.4822C38.9358 34.134 39.0146 32.7466 39.1854 31.3199C33.3522 31.3199 27.6767 31.3199 22.0012 31.3199C21.8173 33.4926 22.9471 38.9508 24.0638 41.2413C24.3529 41.2152 24.6682 41.1759 24.9835 41.1366ZM36.4396 18.2309C34.8631 14.6183 32.9318 11.3591 30.5276 8.29631C28.1234 11.3853 26.179 14.6314 24.6288 18.2309C28.5569 18.6497 32.4326 18.6497 36.4396 18.2309ZM38.1212 18.1131C40.2758 17.6549 42.3778 17.2099 44.5587 16.7387C44.3616 16.4246 44.2565 16.2675 44.1514 16.1104C43.1004 14.5005 42.0231 12.9167 41.6815 10.9665C41.6553 10.7963 41.4319 10.6131 41.248 10.5476C39.4875 9.8539 37.7402 9.10783 35.9404 8.53191C34.8236 8.17851 33.615 8.08689 32.4457 7.89055C32.4194 7.956 32.38 8.02144 32.3538 8.0738C34.6791 11.1497 36.571 14.4481 38.1212 18.1131ZM36.4002 42.8513C35.2966 42.5502 35.2966 42.5502 34.7974 43.3618C33.5624 45.3251 32.1304 47.1314 30.5407 48.8853C28.9379 47.1314 27.5059 45.3251 26.271 43.3618C25.7455 42.5241 25.7061 42.4979 24.6682 42.8513C26.1922 46.3591 28.1234 49.6183 30.5407 52.6942C32.9318 49.6314 34.8631 46.3853 36.4002 42.8513ZM7.02422 29.4351C7.81248 28.3748 8.56133 27.4455 9.24449 26.4508C9.83569 25.5869 10.3743 24.6837 10.8473 23.7544C11.1232 23.2047 11.3465 22.5764 11.3991 21.9612C11.5567 20.2989 10.4794 18.6104 8.88977 17.8644C7.23442 17.0921 5.29004 17.4063 3.96313 18.6628C2.63622 19.9193 2.22895 21.6602 2.95152 23.3094C3.91058 25.5607 5.42141 27.4455 7.02422 29.4351ZM47.6723 18.1262C49.2357 16.1759 50.7203 14.278 51.7188 12.0529C52.4808 10.3513 52.0603 8.84605 50.8517 7.53715C49.4591 6.01882 47.16 5.73086 45.3864 6.79107C43.6522 7.82511 42.7982 9.91935 43.4683 11.6864C44.401 14.0947 46.0301 16.0712 47.6723 18.1262ZM30.5276 46.5162C32.091 44.579 33.5756 42.6942 34.5609 40.4822C34.7842 39.9717 34.9287 39.3958 34.9419 38.846C34.955 37.0921 33.7858 35.4953 32.1436 34.8539C30.4619 34.1995 28.5569 34.6314 27.322 35.9403C26.0739 37.2623 25.798 38.9377 26.5863 40.6392C27.5716 42.7858 28.9905 44.6314 30.5276 46.5162Z" fill="white"/>
<path d="M44.8478 52.956C44.9135 52.4325 44.9661 51.9743 45.0318 51.4115C46.8579 51.6209 48.6578 51.8304 50.5759 52.0529C50.3525 53.9115 50.1423 55.7047 49.9321 57.5634C49.3935 57.4979 48.9337 57.4455 48.3819 57.3801C48.487 56.4115 48.5789 55.4822 48.684 54.5005C40.1839 60.4298 31.0007 62.1052 21.108 58.977C15.3011 57.1445 10.5846 53.6759 6.78784 48.8853C7.22139 48.545 7.58924 48.2571 7.99651 47.9429C14.1318 55.3775 21.9751 59.1733 31.6707 58.8723C37.4907 58.7021 42.7327 56.778 47.5805 53.2832C46.5951 53.1785 45.7675 53.0738 44.8478 52.956Z" fill="white"/>
<path d="M7.4314 6.03193C7.98318 5.99266 8.45614 5.96648 8.99479 5.92722C9.06047 6.81727 9.11303 7.68114 9.19185 8.70209C14.5783 3.76753 20.845 1.03193 28.1365 0.534546C28.1627 1.05811 28.189 1.52931 28.2153 2.09214C24.8783 2.34083 21.6727 3.04764 18.6247 4.36962C15.6031 5.67853 12.8704 7.43245 10.3217 9.84083C11.399 9.78847 12.2792 9.73612 13.212 9.68376C13.2514 10.1942 13.2908 10.6654 13.3302 11.2414C11.4778 11.3461 9.65167 11.4508 7.73356 11.5686C7.6416 9.70994 7.5365 7.91675 7.4314 6.03193Z" fill="white"/>
<path d="M4.68579 45.8487C5.15875 45.5738 5.56602 45.3251 6.03898 45.0502C6.35428 45.5476 6.66959 46.0188 7.01117 46.5424C6.57762 46.8434 6.17035 47.1183 5.71053 47.4193C5.36895 46.8958 5.05365 46.4115 4.68579 45.8487Z" fill="white"/>
<path d="M0.626144 27.7858C1.21734 27.8382 1.66402 27.8905 2.18953 27.9298C2.16326 28.5188 2.13698 29.0686 2.09757 29.6576C1.57206 29.6576 1.0991 29.6576 0.53418 29.6576C0.560455 29.0162 0.599868 28.4272 0.626144 27.7858Z" fill="white"/>
<path d="M42.6799 3.32252C42.4434 3.83299 42.2332 4.25184 42.0099 4.73614C41.4712 4.50053 40.9589 4.29111 40.3677 4.04242C40.5516 3.57121 40.7355 3.12619 40.9457 2.58954C41.5238 2.82514 42.0756 3.06074 42.6799 3.32252Z" fill="white"/>
<path d="M29.9233 2.03975C29.9233 1.52928 29.9233 1.05808 29.9233 0.547607C30.5014 0.547607 31.0795 0.547607 31.6838 0.547607C31.6838 1.05808 31.6838 1.54237 31.6838 2.03975C31.0663 2.03975 30.5145 2.03975 29.9233 2.03975Z" fill="white"/>
<path d="M35.2177 2.52409C34.6265 2.44556 34.0747 2.36702 33.4573 2.2754C33.5098 1.76493 33.5624 1.30681 33.6281 0.730896C34.2587 0.822519 34.8367 0.901053 35.4805 0.992676C35.4017 1.52933 35.3097 2.00053 35.2177 2.52409Z" fill="white"/>
<path d="M3.20107 38.5319C3.39814 39.1078 3.56893 39.6183 3.75285 40.2073C3.2799 40.3906 2.82008 40.5607 2.28143 40.7571C2.08436 40.155 1.90044 39.5921 1.70337 38.9639C2.21574 38.8068 2.67556 38.6759 3.20107 38.5319Z" fill="white"/>
<path d="M3.77918 44.1995C3.49015 43.5974 3.24054 43.0738 2.97778 42.4979C3.47702 42.2754 3.91056 42.0921 4.39666 41.8696C4.64627 42.3801 4.89589 42.8775 5.17178 43.4534C4.73824 43.7021 4.30469 43.9246 3.77918 44.1995Z" fill="white"/>
<path d="M0.875732 35.2989C1.40124 35.2073 1.8742 35.1419 2.41285 35.0502C2.53109 35.6261 2.63619 36.1628 2.75443 36.778C2.25519 36.8958 1.79537 37.0005 1.23045 37.1314C1.11221 36.5162 0.993972 35.9403 0.875732 35.2989Z" fill="white"/>
<path d="M36.9783 2.91676C37.1096 2.40629 37.2279 1.93509 37.3724 1.39844C37.9767 1.58168 38.5417 1.73875 39.1723 1.922C39.0015 2.44556 38.857 2.90367 38.6993 3.41414C38.095 3.24399 37.5563 3.08692 36.9783 2.91676Z" fill="white"/>
<path d="M2.09757 31.5817C2.12384 32.1183 2.15012 32.655 2.18953 33.2571C1.66402 33.3094 1.17793 33.3487 0.626144 33.401C0.599868 32.7597 0.560455 32.1968 0.53418 31.5817C1.05969 31.5817 1.54578 31.5817 2.09757 31.5817Z" fill="white"/>
<path d="M56.9739 41.1497C57.1709 40.6131 57.3549 40.1288 57.5519 39.6052C58.0512 39.7623 58.4979 39.9063 59.0234 40.0764C58.8263 40.6262 58.6424 41.1366 58.4322 41.7126C57.9329 41.5293 57.4994 41.3591 56.9739 41.1497Z" fill="white"/>
<path d="M58.708 34.7623C58.7737 34.1864 58.8394 33.6759 58.9051 33.1131C59.4174 33.1655 59.8904 33.2047 60.4553 33.2571C60.3896 33.833 60.3371 34.3696 60.2583 34.9717C59.7196 34.9063 59.2598 34.8408 58.708 34.7623Z" fill="white"/>
<path d="M57.7358 43.3356C57.4468 43.8984 57.2103 44.3565 56.9476 44.8801C56.4878 44.6314 56.0542 44.3958 55.5681 44.1471C55.8177 43.6497 56.0542 43.1916 56.3038 42.668C56.7899 42.8905 57.2235 43.1 57.7358 43.3356Z" fill="white"/>
<path d="M58.0642 23.2833C58.5766 23.1393 59.0364 23.0215 59.5619 22.8775C59.6933 23.4403 59.8247 23.977 59.9692 24.566C59.4437 24.6838 58.9838 24.7754 58.4452 24.8932C58.327 24.3566 58.1956 23.833 58.0642 23.2833Z" fill="white"/>
<path d="M60.2846 26.2937C60.3503 26.8958 60.4029 27.4063 60.4686 28.0084C59.9562 28.0607 59.4569 28.1131 58.9183 28.1654C58.8526 27.6026 58.8001 27.0921 58.7344 26.5293C59.2467 26.4377 59.7197 26.3722 60.2846 26.2937Z" fill="white"/>
<path d="M56.1067 14.867C55.6469 15.155 55.2528 15.4037 54.7929 15.6916C54.4908 15.2335 54.1886 14.7885 53.8733 14.3173C54.3068 14.0162 54.6878 13.7413 55.1477 13.4141C55.4761 13.9115 55.7783 14.3696 56.1067 14.867Z" fill="white"/>
<path d="M60.5343 29.7623C60.5343 30.3775 60.5343 30.901 60.5343 31.4507C60.0088 31.4507 59.5358 31.4507 59.0234 31.4507C59.0234 30.901 59.0234 30.4036 59.0234 29.8539C59.5095 29.8146 59.9694 29.7884 60.5343 29.7623Z" fill="white"/>
<path d="M55.6074 17.1314C56.0935 16.8696 56.5139 16.6471 56.9869 16.3984C57.2628 16.922 57.4993 17.3932 57.7751 17.9429C57.2891 18.1655 56.8424 18.3749 56.3563 18.6105C56.1067 18.1131 55.8833 17.655 55.6074 17.1314Z" fill="white"/>
<path d="M58.4191 36.3984C58.9577 36.5031 59.4175 36.6079 59.9431 36.7126C59.8117 37.2885 59.6934 37.8121 59.5621 38.388C59.0365 38.2571 58.5636 38.1393 58.0381 37.9953C58.1695 37.4717 58.2877 36.9744 58.4191 36.3984Z" fill="white"/>
<path d="M58.4715 19.566C58.6817 20.1157 58.8656 20.6262 59.0758 21.189C58.5897 21.3461 58.1168 21.5032 57.5781 21.6864C57.381 21.1628 57.2102 20.6916 57.0132 20.155C57.5124 19.9456 57.9722 19.7623 58.4715 19.566Z" fill="white"/>
<path d="M53.7944 46.9482C54.1229 46.4639 54.3988 46.0581 54.7141 45.5869C55.1608 45.8487 55.5812 46.1105 56.0541 46.3853C55.7257 46.8827 55.4235 47.3408 55.0819 47.8382C54.6353 47.5372 54.2411 47.2623 53.7944 46.9482Z" fill="white"/>
<path d="M7.02429 25.155C5.1456 25.1681 3.63476 23.689 3.60848 21.8304C3.59535 19.9586 5.07991 18.4534 6.94547 18.4272C8.85044 18.401 10.3876 19.9063 10.3876 21.7911C10.4007 23.6366 8.88985 25.1419 7.02429 25.155ZM6.95861 23.5843C7.95707 23.5974 8.77161 22.8382 8.79789 21.8434C8.8373 20.8618 8.04904 20.0372 7.06371 20.011C6.02583 19.9848 5.19815 20.7571 5.18501 21.778C5.18501 22.7597 5.97328 23.5712 6.95861 23.5843Z" fill="white"/>
<path d="M47.6592 7.14447C49.5379 7.14447 51.0487 8.62353 51.0619 10.4822C51.075 12.3408 49.5773 13.8591 47.7249 13.8722C45.8199 13.8853 44.2828 12.3801 44.2828 10.4953C44.2697 8.66279 45.7936 7.15756 47.6592 7.14447ZM49.4722 10.4953C49.4591 9.50049 48.6708 8.72824 47.6723 8.72824C46.6739 8.72824 45.8725 9.51358 45.8593 10.5083C45.8462 11.5162 46.6739 12.3277 47.6986 12.3146C48.6839 12.3015 49.4853 11.4769 49.4722 10.4953Z" fill="white"/>
<path d="M30.5146 42.2754C28.6622 42.2754 27.1382 40.757 27.1382 38.9115C27.1382 37.0529 28.6359 35.5476 30.5014 35.5214C32.3801 35.5084 33.9435 37.0659 33.9173 38.9246C33.891 40.7963 32.3801 42.2754 30.5146 42.2754ZM32.3407 38.8853C32.3276 37.9036 31.513 37.1052 30.5277 37.1052C29.5161 37.1183 28.7016 37.956 28.7278 38.9639C28.7541 39.9324 29.5949 40.7309 30.5803 40.7047C31.5525 40.6916 32.3539 39.867 32.3407 38.8853Z" fill="white"/>
</g>
<defs>
<clipPath id="clip0_3_1778">
<rect width="60" height="60" fill="white" transform="translate(0.53418 0.534546)"/>
</clipPath>
</defs>
</svg>
