<svg width="60" height="60" viewBox="0 0 60 60" fill="none" xmlns="http://www.w3.org/2000/svg">
<g clip-path="url(#clip0_55_322)">
<path d="M30.0631 2.00715e-05C32.2495 0.0420958 34.3939 0.252474 36.5382 0.673232C37.253 0.841535 38.0939 0.967762 37.9258 1.89343C37.7576 3.02947 36.8746 2.65079 36.1178 2.52456C23.4198 0.210399 12.0673 5.21741 5.76037 15.8626C0.0841296 25.4138 0.672777 37.9103 7.48427 46.7462C14.9265 56.3394 24.8073 59.9579 36.7064 57.3492C47.5543 54.9509 55.9636 45.6522 57.7295 34.7125C58.3182 31.1361 58.2341 27.6017 57.5193 24.0673C57.3511 23.2258 56.6784 22.0477 58.0239 21.8373C59.2853 21.6269 59.1591 23.0154 59.3273 23.8149C62.649 39.7616 52.7681 55.54 37.211 59.2006C21.0232 62.9874 5.17173 53.5624 0.967101 37.5736C-3.99436 18.6816 10.5957 -0.168283 30.0631 2.00715e-05Z" fill="white"/>
<path d="M50.6657 30.1683C50.6237 41.9916 40.6167 51.4166 28.8017 50.7013C17.3651 50.0281 8.32516 39.6354 9.4604 28.4853C10.6797 16.2413 21.3595 7.74196 33.1745 9.63537C34.0995 9.80368 35.8234 9.55122 35.6552 10.8976C35.4029 12.5807 33.8052 11.5709 32.8802 11.4446C22.5788 9.9299 12.698 17.2511 11.4786 27.3493C10.1752 38.2469 17.6594 47.756 28.3392 48.6817C41.4997 49.8177 50.6237 37.9944 48.5214 26.9285C48.4373 26.5077 48.4373 26.087 48.3111 25.6662C48.143 25.0351 48.2271 24.4881 48.8998 24.3198C49.6987 24.1094 49.993 24.6985 50.1612 25.3717C50.5816 26.9285 50.6657 28.5274 50.6657 30.1683Z" fill="white"/>
<path d="M45.7043 22.1739C45.3679 22.1318 45.1577 22.1739 44.9475 22.0897C41.3315 20.7012 38.8087 22.1318 36.5382 24.993C34.9404 27.0126 32.9222 28.6956 31.0722 30.5049C30.5256 31.0098 29.9369 31.7672 29.1381 31.0519C28.213 30.2104 28.9699 29.5792 29.5585 28.9481C32.0393 26.4656 34.4359 23.899 37.0007 21.5428C38.3041 20.3646 38.8507 19.1024 38.3041 17.5035C37.253 14.3899 38.4303 12.2861 40.7428 10.2244C43.3497 7.99437 45.6202 5.42775 48.0589 2.98735C48.5214 2.52452 48.9839 1.85131 49.8248 2.06169C50.6657 2.27207 50.7498 3.0715 50.7498 3.74472C50.7919 7.40531 52.5578 9.13041 56.2999 9.29871C58.3182 9.38287 58.5704 10.3927 57.1409 11.8233C53.9874 15.021 50.7919 18.1346 47.6805 21.3324C47.0077 21.9635 46.4191 22.3422 45.7043 22.1739ZM48.9418 5.55397C48.7316 5.5119 48.5214 5.5119 48.3532 5.46982C46.335 7.57361 44.4429 9.80362 42.2985 11.7812C40.6167 13.338 39.6917 14.8106 40.3644 17.209C40.7428 18.4712 40.6587 19.7756 42.4667 19.5652C43.7281 19.3969 45.0736 20.6592 46.2929 19.5652C49.11 16.9986 51.801 14.3057 54.576 11.697C54.6181 11.4025 54.6601 11.108 54.7022 10.8134C50.2873 11.5287 48.8998 9.21456 48.9418 5.55397Z" fill="#2FA26C"/>
<path d="M30.82 20.3647C25.1438 20.0701 20.4766 24.2356 20.3505 29.7476C20.2243 35.3016 24.8074 39.8457 30.3154 39.6774C35.9076 39.5933 40.0702 34.7966 39.6918 29.0323C39.6497 28.1487 38.6826 26.5919 40.3645 26.5077C41.71 26.4236 41.4997 28.1066 41.5838 29.0323C42.2566 35.4699 37.0849 41.3184 30.5677 41.5288C23.6721 41.7812 18.3323 36.4797 18.5004 29.6213C18.6686 23.0996 24.429 17.8822 30.9041 18.4292C31.3246 18.4713 31.745 18.5554 32.1655 18.6396C32.9223 18.7658 33.6371 18.9341 33.4269 19.9018C33.2166 20.7854 32.5018 20.533 31.8712 20.4488C31.4927 20.4488 31.1564 20.4067 30.82 20.3647Z" fill="white"/>
</g>
<defs>
<clipPath id="clip0_55_322">
<rect width="60" height="60" fill="white"/>
</clipPath>
</defs>
</svg>
