<svg width="63" height="63" viewBox="0 0 63 63" fill="none" xmlns="http://www.w3.org/2000/svg">
<g clip-path="url(#clip0_3_1812)">
<path d="M41.5174 19.4884C34.8621 19.4884 28.2442 19.4884 21.5889 19.4884C21.5889 13.1746 21.5889 6.87332 21.5889 0.547048C24.0659 0.547048 26.5304 0.547048 29.0449 0.547048C29.0449 2.86001 29.0449 5.13547 29.0449 7.46094C30.7212 7.46094 32.3601 7.46094 34.0489 7.46094C34.0489 5.16048 34.0489 2.86001 34.0489 0.534546C36.5634 0.534546 39.0154 0.534546 41.5174 0.534546C41.5174 6.82331 41.5174 13.1246 41.5174 19.4884Z" fill="white"/>
<path d="M9.39132 47.4565C10.5172 47.519 11.5556 47.4815 12.5439 47.644C14.7581 48.0191 16.4845 49.982 16.5221 52.2324C16.5846 55.5831 16.5471 58.9338 16.5471 62.297C16.5471 62.3595 16.5221 62.4095 16.497 62.497C11.2053 62.497 5.91352 62.497 0.53418 62.497C0.53418 62.2845 0.53418 62.0594 0.53418 61.8344C0.53418 58.8088 0.53418 55.7957 0.53418 52.7701C0.53418 49.6444 2.66089 47.519 5.80093 47.519C6.3889 47.519 6.98938 47.519 7.72748 47.519C4.88769 46.4313 3.64919 44.4934 4.14959 42.1054C4.59996 39.93 6.53902 38.4297 8.77833 38.5297C10.9426 38.6172 12.7315 40.2925 13.0192 42.493C13.3195 44.7059 11.9058 46.6938 9.39132 47.4565Z" fill="white"/>
<path d="M39.6033 33.0911C39.4407 33.2662 39.2656 33.5662 39.0028 33.6913C38.4274 33.9788 38.2147 34.3914 38.3273 35.004C38.3648 35.2041 38.3773 35.4291 38.3398 35.6291C38.2147 36.4418 38.3273 37.0919 39.203 37.4545C39.5783 37.6045 39.6784 38.0296 39.4532 38.4297C39.0404 39.1549 38.615 39.8675 38.1647 40.5676C37.8894 41.0052 37.4391 41.1052 37.0262 40.8302C36.3757 40.3926 35.8253 40.4926 35.2623 40.9552C35.0997 41.0802 34.912 41.1928 34.7244 41.2678C33.9988 41.5178 33.561 41.9054 33.6235 42.7681C33.661 43.2307 33.2982 43.5182 32.7978 43.5182C31.9597 43.5307 31.134 43.5307 30.2958 43.5182C29.7329 43.5057 29.4201 43.1682 29.4576 42.6431C29.4952 41.9429 29.1949 41.5553 28.5569 41.3428C28.3568 41.2803 28.1691 41.1803 28.0065 41.0427C27.3685 40.5176 26.7304 40.3551 25.9673 40.8677C25.5795 41.1303 25.1542 40.9302 24.904 40.5176C24.5036 39.8675 24.0908 39.2049 23.7155 38.5422C23.4153 38.0171 23.4903 37.6295 24.0533 37.3545C24.6788 37.0544 24.8915 36.6043 24.7789 35.9542C24.7413 35.6917 24.7288 35.4041 24.7789 35.1415C24.904 34.4289 24.6913 33.9538 24.0032 33.6412C23.5028 33.4162 23.4153 32.9661 23.7155 32.491C24.1033 31.8534 24.4786 31.2033 24.879 30.5656C25.2292 30.0155 25.5795 29.903 26.1425 30.2281C26.7179 30.5781 27.2183 30.5781 27.7438 30.1405C27.9689 29.953 28.2317 29.803 28.5069 29.7155C29.1824 29.4904 29.5077 29.0778 29.4702 28.3277C29.4451 27.7901 29.8079 27.5025 30.3584 27.5025C31.134 27.5025 31.8971 27.49 32.6727 27.5025C33.3483 27.515 33.661 27.7776 33.636 28.4402C33.6235 29.0653 33.8612 29.4154 34.4241 29.6154C34.6618 29.703 34.8995 29.803 35.0872 29.9655C35.7377 30.4906 36.3632 30.6531 37.1263 30.153C37.3265 30.028 37.902 30.1655 38.0521 30.3656C38.59 31.1032 39.0279 31.9159 39.4907 32.6911C39.5533 32.7786 39.5533 32.8661 39.6033 33.0911ZM31.5593 32.6535C29.9956 32.6535 28.6945 33.9413 28.6945 35.5041C28.6945 37.0669 29.9956 38.3672 31.5468 38.3672C33.1106 38.3672 34.4116 37.0669 34.4116 35.5041C34.4241 33.9538 33.1231 32.6535 31.5593 32.6535Z" fill="white"/>
<path d="M55.5784 58.5087C55.1406 57.6836 54.7778 56.9959 54.415 56.2958C53.0014 53.6078 51.5502 50.9447 50.1866 48.2317C48.4977 44.8685 50.2491 40.8177 53.827 39.78C56.304 39.0673 58.4808 39.6799 60.1571 41.6303C61.846 43.6057 62.1212 45.8812 60.9828 48.2192C59.6067 51.0197 58.093 53.7453 56.6418 56.5083C56.304 57.1335 55.9788 57.7586 55.5784 58.5087ZM55.5909 48.0066C56.9671 47.9941 58.0804 46.8689 58.0804 45.4936C58.0804 44.1183 56.942 43.0056 55.5659 43.0056C54.1898 43.0056 53.0764 44.1433 53.0764 45.5186C53.0889 46.9064 54.2148 48.0191 55.5909 48.0066Z" fill="white"/>
<path d="M26.5553 57.021C26.18 58.1837 25.8297 59.2839 25.4419 60.4967C23.8406 58.4087 22.3144 56.4083 20.7256 54.3329C23.2026 53.5578 25.6045 52.8076 28.1316 52.0199C27.7938 53.0952 27.4935 54.0704 27.1808 55.0956C33.661 56.2583 39.5533 54.9455 44.9952 51.2198C45.3705 51.7324 45.7458 52.245 46.1586 52.8326C40.1913 56.9584 33.6985 58.3337 26.5553 57.021Z" fill="white"/>
<path d="M12.1061 16.7378C11.2679 15.9501 10.4298 15.1625 9.52904 14.3123C12.1186 13.8622 14.5956 13.4246 17.1602 12.962C16.7098 15.5251 16.272 17.988 15.8341 20.5011C15.0835 19.7259 14.3704 18.9883 13.5948 18.1756C11.5432 20.7386 10.2046 23.4141 9.37892 26.3647C8.55325 29.3028 8.35309 32.2909 8.70337 35.3666C8.04034 35.4541 7.42734 35.5416 6.81435 35.6166C6.05123 32.0284 6.5016 23.6767 12.1061 16.7378Z" fill="white"/>
<path d="M56.3294 28.9028C57.5178 28.9028 58.6437 28.9028 59.8572 28.9028C58.5061 31.0407 57.155 33.1661 55.7539 35.3791C54.1776 33.3287 52.6264 31.3283 51.0001 29.2278C52.1635 29.1653 53.2143 29.1153 54.3152 29.0653C53.3394 23.1516 50.5622 18.3756 45.9585 14.5374C46.3713 14.0373 46.7717 13.5247 47.2095 12.9871C52.3011 17.1879 55.316 22.5015 56.3294 28.9028Z" fill="white"/>
<path d="M59.4068 55.5581C59.7071 54.9955 59.9948 54.4454 60.2826 53.8953C62.3217 54.6704 63.1849 57.621 61.9839 59.5714C61.3334 60.6216 60.3951 61.3218 59.2692 61.7719C56.5295 62.8721 53.8148 62.8096 51.2002 61.3968C50.6123 61.0842 50.0618 60.6216 49.6114 60.109C47.8851 58.1336 48.473 55.158 50.8625 53.8453C51.1627 54.4079 51.4629 54.958 51.7757 55.5456C51.6256 55.6831 51.488 55.7957 51.3504 55.9332C50.3495 56.8959 50.337 58.1086 51.3504 59.0588C52.2511 59.909 53.3645 60.2716 54.5654 60.4341C56.0667 60.6341 57.5178 60.4466 58.8689 59.7465C60.8955 58.6963 61.1082 57.1709 59.4068 55.5581Z" fill="white"/>
</g>
<defs>
<clipPath id="clip0_3_1812">
<rect width="62" height="62" fill="white" transform="translate(0.53418 0.534546)"/>
</clipPath>
</defs>
</svg>
