<svg width="60" height="60" viewBox="0 0 60 60" fill="none" xmlns="http://www.w3.org/2000/svg">
<g clip-path="url(#clip0_55_337)">
<path d="M4.33673 28.2425C5.58425 28.1819 6.59415 28.7879 7.60405 29.5152C10.9308 32 14.3763 34.4243 17.6437 36.9697C18.6536 37.7576 19.5446 38.2425 20.7922 37.394C21.4456 36.9697 22.3367 36.7273 23.0496 36.8485C30.4753 38 37.6635 35.2728 45.0892 35.5758C46.8714 35.6364 48.4753 36 49.7229 37.3334C52.7526 40.4849 55.7823 43.697 58.9308 46.7273C60.3565 48.1213 60.2971 49.091 58.9308 50.4849C56.2575 53.1516 53.6437 55.9394 51.1486 58.7273C49.7823 60.2425 48.713 60.4849 47.406 58.6061C43.6635 53.2122 38.6734 51.3334 32.1981 52.7273C25.6635 54.1819 19.7229 52.5455 14.8516 47.4546C10.4555 42.9091 5.70306 38.6667 1.66346 33.697C0.891181 32.7879 -0.593967 31.8788 0.237716 30.3637C1.12881 28.9091 2.67336 28.3637 4.33673 28.2425ZM34.5743 42.7879C36.8318 42.7273 38.3763 42.9091 39.8615 43.4546C40.6932 43.7576 41.2872 44.2425 41.0496 45.2122C40.812 46.2425 39.9209 46.3031 39.1486 46C36.5942 45.0303 34.0991 45.5758 31.5446 45.8788C29.2872 46.1819 27.0298 46.1213 24.713 45.8182C21.5644 45.394 18.5347 44.8485 17.8219 40.8485C17.7625 40.4243 17.2872 40 16.9308 39.7576C13.1882 36.9697 9.44564 34.1819 5.64366 31.394C5.109 30.9697 4.33673 30.4243 3.80207 31.0303C2.97039 31.9394 4.15851 32.4243 4.63376 32.9091C8.19811 36.6667 12.0001 40.2425 15.3862 44.1819C20.4951 50.0606 26.614 51.5152 33.8615 49.7576C37.7229 48.7879 41.2278 49.8788 44.614 51.8788C46.5743 53.0303 47.5843 56.4243 49.9011 55.697C51.9209 55.0303 53.2872 52.4243 54.8912 50.6667C55.1882 50.3637 55.4258 50.0606 55.7229 49.8182C56.8516 48.9091 56.6734 48.1819 55.6635 47.2122C53.1684 44.7879 50.614 42.3637 48.3565 39.7576C46.7526 37.9394 44.7922 37.394 42.7724 37.7576C36.5347 38.7879 30.4159 40.4243 24.0595 39.394C22.9308 39.2122 21.0892 39.2122 20.911 40.8485C20.7328 42.5455 22.5149 42.5455 23.7031 42.8485C27.5644 43.9394 31.3664 43.2728 34.5743 42.7879Z" fill="white"/>
<path d="M48.2377 10.7879C48.2971 13.3334 47.3466 15.5152 45.9803 17.5152C42.0595 23.1516 36.8318 27.5152 31.5447 31.7576C30.5348 32.6061 29.5843 32.4849 28.6338 31.697C23.5249 27.5758 18.416 23.394 14.614 17.9394C11.1684 13.0303 11.2278 7.39397 14.6734 3.45458C18.1189 -0.484813 23.9407 -1.09087 28.9308 2.24246C30.416 3.27276 31.01 2.30307 31.9605 1.75761C35.6437 -0.424207 39.5051 -0.666631 43.2476 1.51519C46.6932 3.51519 48.1783 6.78791 48.2377 10.7879ZM45.1486 10.6667C44.9704 7.69701 43.9011 5.21216 40.9902 3.93943C37.7823 2.54549 34.812 3.03034 32.2575 5.51519C31.0694 6.6667 30.1783 7.81822 28.3961 6.00004C25.01 2.54549 20.6734 2.24246 17.5249 4.96973C14.4358 7.6364 14.2575 12 17.109 16.1212C20.3763 20.7273 24.5942 24.3637 28.9308 27.9394C29.7625 28.6061 30.2971 28.7879 31.1882 28C35.6437 24.3031 40.0397 20.6061 43.4258 15.7576C44.4358 14.2425 45.1486 12.6061 45.1486 10.6667Z" fill="#2FA26C"/>
</g>
<defs>
<clipPath id="clip0_55_337">
<rect width="60" height="60" fill="white"/>
</clipPath>
</defs>
</svg>
