<svg width="60" height="60" viewBox="0 0 60 60" fill="none" xmlns="http://www.w3.org/2000/svg">
<path d="M17.5757 42.4293C25.1422 49.9929 34.4901 54.2521 42.6491 54.3285C45.6867 54.6145 48.8323 53.5941 51.1627 51.2649C55.3123 47.1169 55.3123 40.3913 51.1627 36.2431C47.0135 32.0954 40.2863 32.0954 36.1372 36.2431C35.157 37.223 34.4075 38.3485 33.89 39.5503C31.3042 37.9448 28.7751 35.9526 26.414 33.5925L17.5757 42.4293Z" fill="white"/>
<path d="M23.7627 8.85292C19.6134 4.70528 12.8864 4.70528 8.7372 8.85292C6.40676 11.1824 5.38588 14.3272 5.67196 17.3645C5.74848 25.5209 10.0096 34.8655 17.576 42.4288L26.4143 33.592C24.0537 31.2323 22.0611 28.7047 20.4552 26.1205C21.657 25.6033 22.7826 24.8543 23.7627 23.8746C27.9124 19.7266 27.9124 13.001 23.7627 8.85292Z" fill="white" fill-opacity="0.18"/>
</svg>
