<svg width="60" height="66" viewBox="0 0 60 66" fill="none" xmlns="http://www.w3.org/2000/svg">
<path d="M34.5894 61.4014C36.7318 59.8069 39.6252 57.5128 42.6245 54.7135C48.5221 49.2093 55.238 41.3813 56.9487 32.828C60.4084 15.5266 46.3944 2 29.7389 2C13.0838 2 -0.931433 15.5265 2.52942 32.828C4.24034 41.3813 10.9564 49.2093 16.8538 54.7135C19.853 57.5128 22.7463 59.8069 24.8888 61.4014C25.0311 61.5073 24.6754 61.2426 24.7262 61.2793C27.4804 63.2669 31.9978 63.2669 34.752 61.2793C34.8027 61.2426 34.447 61.5073 34.5894 61.4014Z" fill="white" fill-opacity="0.18"/>
<path d="M40.635 29.7252C40.635 35.7462 35.7541 40.6272 29.7331 40.6272C23.712 40.6272 18.8311 35.7462 18.8311 29.7252C18.8311 23.7042 23.712 18.8232 29.7331 18.8232C35.7541 18.8232 40.635 23.7042 40.635 29.7252Z" fill="white"/>
</svg>
