<svg width="51" height="50" viewBox="0 0 51 50" fill="none" xmlns="http://www.w3.org/2000/svg">
<path d="M20.6681 7.00623C23.2723 4.33125 27.6912 4.33125 30.2954 7.00623C31.5944 8.34039 33.4304 9.07053 35.3317 9.00885C39.1435 8.88519 42.2681 11.8848 42.1392 15.5441C42.075 17.3692 42.8356 19.1319 44.2252 20.3788C47.0117 22.879 47.0117 27.121 44.2252 29.6212C42.8356 30.868 42.075 32.6308 42.1392 34.4558C42.2681 38.1152 39.1435 41.1148 35.3317 40.9912C33.4304 40.9294 31.5944 41.6596 30.2954 42.9938C27.6912 45.6688 23.2723 45.6688 20.6681 42.9938C19.3692 41.6596 17.5331 40.9294 15.6319 40.9912C11.8201 41.1148 8.69552 38.1152 8.82433 34.4558C8.88858 32.6308 8.12801 30.868 6.73827 29.6212C3.95183 27.121 3.95183 22.879 6.73827 20.3788C8.12801 19.1319 8.88858 17.3692 8.82433 15.5441C8.69552 11.8848 11.8201 8.88519 15.6319 9.00885C17.5331 9.07053 19.3692 8.34039 20.6681 7.00623Z" fill="white" fill-opacity="0.18"/>
<path d="M18.1899 25L21.2361 28.4814C21.7846 29.1082 22.0588 29.4216 22.4121 29.4922C22.5259 29.5148 22.6425 29.5192 22.7578 29.5048C23.1157 29.4604 23.4142 29.1682 24.0109 28.5834L32.7734 20" stroke="white" stroke-width="1.44" stroke-linecap="round" stroke-linejoin="round"/>
</svg>
