<svg width="61" height="61" viewBox="0 0 61 61" fill="none" xmlns="http://www.w3.org/2000/svg">
<g clip-path="url(#clip0_3_1758)">
<path d="M32.735 19.5711C32.735 25.6719 32.735 31.7891 32.735 37.8899C32.735 39.3704 32.4156 39.7446 31.1381 39.7446C29.5413 39.7446 27.9444 39.7446 26.3476 39.7446C25.3617 39.7446 24.959 39.2891 24.959 38.1177C24.959 34.5711 24.9451 31.0244 24.9729 27.4778C24.9729 26.8758 24.8618 26.6806 24.3342 26.7294C23.626 26.7945 22.9039 26.7782 22.1819 26.7294C21.7098 26.6969 21.6126 26.8921 21.6126 27.4127C21.6265 30.9268 21.6265 34.4572 21.6265 37.9713C21.6265 39.3542 21.2793 39.7609 20.099 39.7446C15.9194 39.7446 11.726 39.7446 7.54638 39.7446C6.44941 39.7446 6.08838 39.3216 6.08838 38.0526C6.08838 32.2609 6.08838 26.4529 6.08838 20.6611C6.08838 20.2869 6.04673 19.8965 6.22724 19.5548C6.4633 19.4735 6.58827 19.2945 6.64381 19.0179C7.86575 18.8064 8.31009 19.262 8.31009 20.7099C8.31009 25.9322 8.32398 31.1709 8.29621 36.3932C8.29621 36.9789 8.37952 37.1741 8.92106 37.1578C12.1981 37.1253 15.489 37.1253 18.766 37.1578C19.2659 37.1578 19.4186 37.044 19.4186 36.4095C19.3909 32.8628 19.4047 29.3162 19.4047 25.7696C19.4047 24.5982 19.7935 24.1427 20.7794 24.1427C22.4179 24.1427 24.0564 24.1427 25.7088 24.1427C26.8336 24.1427 27.1807 24.5657 27.1807 25.8997C27.1807 29.3975 27.1946 32.8954 27.1668 36.3769C27.1668 37.044 27.3474 37.1904 27.8611 37.1578C28.4999 37.109 29.1525 37.0928 29.8051 37.1578C30.3605 37.2067 30.5411 37.044 30.5272 36.3444C30.4994 31.0895 30.5133 25.8346 30.5133 20.5798C30.5133 19.327 30.9715 18.8552 32.0129 19.0179C32.0685 19.0179 32.124 18.9691 32.1796 18.9529L32.1657 18.9366C32.0685 19.1481 32.249 19.1318 32.3184 19.1969C32.3184 19.3433 32.3879 19.4247 32.5128 19.4247C32.5684 19.506 32.5545 19.7175 32.735 19.6036C32.7489 19.5873 32.735 19.5711 32.735 19.5711Z" fill="white"/>
<path d="M32.5267 19.4084C32.4018 19.4084 32.3323 19.3271 32.3323 19.1806C32.3323 19.0505 32.3185 18.9366 32.1796 18.9203L32.1935 18.9366C32.1379 18.6112 31.888 18.4648 31.7214 18.2696C29.9301 16.1546 28.1111 14.0722 26.3198 11.9572C24.1259 9.37045 21.9459 6.75115 19.7658 4.13184C19.4881 3.80646 19.3354 3.79019 19.0576 4.13184C18.3772 4.97783 17.6552 5.79128 16.9609 6.60473C13.6006 10.5418 10.2263 14.4952 6.86601 18.4485C6.75493 18.5787 6.38002 18.66 6.64384 19.018C6.5883 19.2945 6.46333 19.4735 6.22727 19.5548C5.94956 19.5386 5.76905 19.7175 5.57465 19.929C5.17196 20.4171 4.78316 20.9052 4.33882 21.3444C3.86671 21.8162 3.24185 21.7511 2.83917 21.2305C2.43648 20.6937 2.4226 20.108 2.78363 19.5223C2.89471 19.3433 3.03357 19.1969 3.15854 19.0505C8.21293 13.1774 13.2534 7.27175 18.28 1.36611C19.1826 0.30863 19.6408 0.292361 20.5295 1.34984C22.1819 3.28585 23.8204 5.23813 25.4589 7.17414C25.6117 7.3531 25.7783 7.53206 26.056 7.84117C26.056 7.12533 26.0421 6.57219 26.056 6.01904C26.0838 5.10798 26.4865 4.61991 27.278 4.61991C28.6665 4.60364 30.0551 4.60364 31.4437 4.61991C32.3046 4.61991 32.7211 5.10798 32.7211 6.11666C32.7211 9.20776 32.7073 12.2989 32.6795 15.3737C32.6795 15.7154 32.8183 15.8618 32.985 16.0407C33.8737 17.0982 34.7762 18.1557 35.6649 19.2132C36.2898 19.9616 36.3453 20.6937 35.8315 21.2793C35.3178 21.865 34.7207 21.7674 34.0681 21.0516C33.6237 20.5472 33.2488 19.9453 32.7211 19.5548L32.735 19.5711C32.735 19.4247 32.6378 19.4084 32.5267 19.4084ZM30.5133 13.1774C30.5133 11.16 30.5133 9.37045 30.5133 7.5646C30.5133 7.25548 30.3745 7.23922 30.1662 7.22295C28.2916 6.99518 28.2916 6.99518 28.2916 9.19149C28.2916 9.51687 28.2916 9.84225 28.2916 10.1676C28.2916 10.3954 28.3194 10.5744 28.4721 10.7533C29.1248 11.4854 29.7496 12.2663 30.5133 13.1774Z" fill="white"/>
<path d="M41.622 35.8075C41.622 33.7414 41.622 31.6915 41.622 29.6253C41.622 28.5028 42.0108 28.031 42.9551 28.031C45.0101 28.031 47.0652 28.0147 49.1342 28.031C54.8412 28.0798 59.7151 33.2045 60.3538 39.8585C60.6871 43.2913 60.4371 46.7403 60.4788 50.1731C60.4927 50.9377 60.0206 51.4258 59.3679 51.442C57.174 51.4583 54.9801 51.4583 52.7722 51.442C52.078 51.442 51.6058 50.8726 51.6058 50.1405C51.6058 49.4084 52.078 48.8553 52.7861 48.8553C54.4524 48.839 56.1187 48.8553 57.785 48.8553C58.0349 48.8553 58.2848 48.9203 58.271 48.4323C58.1876 45.6666 58.4376 42.9008 58.1321 40.1514C57.535 34.6524 53.647 30.6503 48.9259 30.634C47.4263 30.634 45.9127 30.6665 44.4131 30.6177C43.9132 30.6015 43.816 30.7967 43.816 31.3498C43.8438 34.929 43.8299 38.5082 43.8299 42.0711C43.8299 42.6893 43.7049 43.1937 43.205 43.4865C42.4274 43.942 41.622 43.3238 41.6082 42.2175C41.6082 40.0863 41.622 37.9551 41.622 35.8075Z" fill="white"/>
<path d="M19.9742 41.0462C25.9867 41.0462 31.9992 41.0462 38.0116 41.0462C39.067 41.0462 39.4002 41.4366 39.4002 42.7056C39.4002 43.0635 39.428 43.4052 39.3863 43.7631C39.3308 44.3976 39.0114 44.8206 38.4699 44.9345C37.9283 45.0483 37.4562 44.8043 37.3035 44.1861C37.1646 43.6492 36.9008 43.6492 36.5398 43.6492C25.5145 43.6492 14.4754 43.6655 3.45021 43.6329C2.8809 43.6329 2.70038 43.7794 2.72815 44.4627C2.7837 45.7316 2.75593 47.0169 2.72815 48.2859C2.71427 48.7577 2.85312 48.8878 3.24192 48.8553C3.79735 48.8227 4.35278 48.8227 4.9082 48.8553C5.61637 48.8878 6.0746 49.4247 6.0746 50.1568C6.0746 50.8889 5.60249 51.4421 4.89432 51.4421C3.82512 51.4583 2.76981 51.4583 1.70061 51.4421C0.936902 51.4258 0.520332 50.9214 0.520332 49.9941C0.506446 47.505 0.520332 45.0158 0.520332 42.5104C0.520332 41.4529 0.90913 41.0299 1.85336 41.0299C7.90751 41.0462 13.9339 41.0462 19.9742 41.0462Z" fill="white"/>
<path d="M13.8227 44.9507C17.5024 44.9345 20.5156 48.416 20.5295 52.711C20.5434 57.0549 17.544 60.5852 13.8366 60.569C10.1708 60.5527 7.19922 57.0386 7.19922 52.7273C7.19922 48.4811 10.1985 44.967 13.8227 44.9507ZM9.42093 52.711C9.40704 55.5907 11.3788 57.9497 13.8366 57.9659C16.2527 57.9822 18.2661 55.672 18.2939 52.8575C18.3216 49.9616 16.3638 47.5863 13.9199 47.57C11.4621 47.5375 9.4487 49.8314 9.42093 52.711Z" fill="white"/>
<path d="M43.8298 44.9507C47.4956 44.9345 50.481 48.4323 50.4949 52.7436C50.5088 57.0386 47.4956 60.569 43.8436 60.5527C40.1639 60.5527 37.1646 57.0386 37.1785 52.7599C37.1785 48.4648 40.1639 44.9507 43.8298 44.9507ZM48.2871 52.7436C48.2871 49.864 46.2875 47.5538 43.8298 47.5538C41.4136 47.5538 39.428 49.8965 39.4141 52.7273C39.4141 55.6069 41.3998 57.9497 43.8436 57.9659C46.2875 57.9659 48.2871 55.6232 48.2871 52.7436Z" fill="white"/>
<path d="M51.0502 43.6492C49.4534 43.6492 47.8565 43.6492 46.2597 43.6492C45.3571 43.6492 44.9544 43.1774 44.9544 42.1037C44.9544 39.2241 44.9405 36.3607 44.9544 33.4811C44.9544 32.4074 45.3571 31.9193 46.2597 31.9356C47.7871 31.9681 49.3145 31.7566 50.8281 32.1633C54.119 33.0744 56.5906 36.377 57.0349 40.4117C57.0905 40.9486 57.146 41.4855 57.1599 42.0223C57.1877 43.1286 56.7711 43.633 55.8408 43.633C54.2439 43.6655 52.6471 43.6492 51.0502 43.6492ZM50.9669 41.0462C52.1194 41.0462 53.2719 41.0299 54.4244 41.0625C54.7716 41.0625 54.8549 40.9648 54.8132 40.5581C54.5494 37.9551 52.6748 35.4171 50.5226 34.7664C49.5228 34.4573 48.5091 34.5711 47.4955 34.5549C47.1067 34.5386 47.19 34.8477 47.19 35.108C47.19 36.9139 47.2039 38.736 47.1761 40.5419C47.1761 40.9811 47.2872 41.0787 47.6482 41.0787C48.7452 41.0299 49.8561 41.0462 50.9669 41.0462Z" fill="white"/>
<path d="M28.8887 51.4583C26.9725 51.4583 25.0563 51.4583 23.1401 51.4583C22.1542 51.4583 21.6265 51.0028 21.6404 50.1405C21.6543 49.3108 22.1542 48.8553 23.0984 48.8553C26.9586 48.8553 30.8188 48.8553 34.6652 48.8553C35.54 48.8553 36.0398 49.3271 36.0537 50.1405C36.0676 50.9865 35.5539 51.4583 34.6235 51.4583C32.7212 51.4583 30.8049 51.4583 28.8887 51.4583Z" fill="white"/>
<path d="M32.1797 18.9203C32.3186 18.9366 32.3325 19.0505 32.3325 19.1807C32.263 19.1156 32.0825 19.1318 32.1797 18.9203Z" fill="white"/>
<path d="M32.5269 19.4084C32.6379 19.4084 32.7351 19.4247 32.749 19.5873C32.5685 19.7012 32.5824 19.4897 32.5269 19.4084Z" fill="white"/>
<path d="M19.4882 13.7305C21.585 13.7305 23.6956 13.7305 25.7923 13.7305C26.6671 13.7305 27.167 14.2023 27.1809 15.0158C27.1948 15.8292 26.681 16.3336 25.8201 16.3336C21.5433 16.3336 17.2665 16.3336 13.0036 16.3336C12.1427 16.3336 11.6428 15.8292 11.6428 14.9995C11.6567 14.2186 12.1427 13.7305 12.9758 13.7305C15.142 13.7305 17.3221 13.7305 19.4882 13.7305Z" fill="white"/>
<path d="M16.0861 52.7436C16.1 54.159 15.1141 55.3466 13.906 55.3629C12.698 55.3792 11.6843 54.2403 11.6566 52.8249C11.6288 51.377 12.6424 50.1731 13.8783 50.1731C15.0724 50.1568 16.0722 51.3282 16.0861 52.7436Z" fill="white"/>
<path d="M46.0653 52.7761C46.0515 54.1915 45.0517 55.3466 43.8436 55.3466C42.6078 55.3466 41.608 54.1264 41.6358 52.6785C41.6636 51.2631 42.6772 50.1243 43.8992 50.1406C45.0934 50.1894 46.0792 51.377 46.0653 52.7761Z" fill="white"/>
</g>
<defs>
<clipPath id="clip0_3_1758">
<rect width="60" height="60" fill="white" transform="translate(0.53418 0.568909)"/>
</clipPath>
</defs>
</svg>
