<svg width="60" height="60" viewBox="0 0 60 60" fill="none" xmlns="http://www.w3.org/2000/svg">
<g clip-path="url(#clip0_55_327)">
<path d="M29.9048 42.646C19.162 42.4349 9.56196 38.0858 0.800056 31.1611C-0.495183 30.1478 -0.0380397 29.43 0.990532 28.6277C18.6286 14.9894 36.0762 13.596 54.2858 25.2498C55.9239 26.3054 57.4477 27.5721 59.0858 28.6699C60.4191 29.5988 60.2286 30.4433 59.0477 31.3722C50.3239 38.0858 40.8382 42.3927 29.9048 42.646ZM36.6477 20.0563C32.2286 18.874 27.7715 18.874 23.3524 20.0563C20.3048 20.3096 17.4096 21.4497 14.5905 22.6319C10.2477 24.4475 6.13339 26.8543 2.28577 29.9789C4.34291 31.71 6.32387 33.0612 8.4191 34.2435C13.181 36.9036 18.0191 39.2681 23.3905 39.9015C27.7715 41.2104 32.1524 40.957 36.5715 39.9859C44.3429 38.6347 51.2001 34.9613 57.7524 29.9789C54.6667 27.4454 51.5048 25.5031 48.2286 23.8986C44.4953 22.1252 40.7239 20.5207 36.6477 20.0563Z" fill="white"/>
<path d="M43.8477 44.7995C44.2668 44.7572 44.5334 45.0528 44.8382 45.3484C46.743 47.2907 48.6477 49.1907 50.5525 51.133C51.0096 51.5975 51.5811 52.1886 51.0096 52.8642C50.4382 53.582 49.8668 52.9909 49.4096 52.5264C47.5049 50.5841 45.562 48.684 43.6572 46.7417C43.2763 46.3617 42.8953 45.9817 43.0858 45.3061C43.2382 44.9684 43.5049 44.8417 43.8477 44.7995Z" fill="white"/>
<path d="M16.9905 14.0605C16.762 15.0739 16.1905 15.3272 15.581 14.7783C13.3334 12.6249 11.162 10.3871 8.99052 8.14919C8.64767 7.76918 8.64766 7.26249 9.06671 6.84026C9.37147 6.50247 9.75243 6.41802 10.0953 6.75581C12.3048 8.95145 14.5143 11.1471 16.6858 13.3849C16.8381 13.5538 16.8762 13.8916 16.9905 14.0605Z" fill="white"/>
<path d="M51.2 7.72694C51.0477 7.93806 50.8572 8.31808 50.5905 8.61364C48.6858 10.5559 46.781 12.456 44.8762 14.3983C44.381 14.8628 43.8477 15.4539 43.2762 14.7361C42.6667 14.0183 43.2762 13.4694 43.7334 13.0049C45.6381 11.0626 47.5429 9.16255 49.4477 7.22026C49.8286 6.84025 50.2096 6.41801 50.781 6.71357C51.0858 6.88247 51.2 7.22026 51.2 7.72694Z" fill="white"/>
<path d="M16.0381 44.7995C16.3809 44.7572 16.6857 44.8839 16.8381 45.2217C17.0667 45.6439 16.9905 46.0662 16.6857 46.3617C14.5143 48.5996 12.3048 50.7952 10.0952 52.9909C9.75238 53.3287 9.40952 53.3287 9.06666 52.9909C8.64761 52.6109 8.60952 52.062 8.95238 51.7242C11.1619 49.4441 13.4095 47.2062 15.6571 44.9261C15.7714 44.8417 15.9238 44.8417 16.0381 44.7995Z" fill="white"/>
<path d="M30.8571 5.53132C30.8571 7.00915 30.8571 8.48698 30.8571 9.96481C30.8571 10.5559 30.6666 11.1471 30.019 11.1471C29.4095 11.1471 29.1428 10.6404 29.1428 10.007C29.1428 7.05137 29.1428 4.09571 29.1047 1.18227C29.1047 0.548909 29.3714 0 29.9428 0C30.6285 0 30.8571 0.591133 30.8571 1.35116C30.8571 2.74455 30.8571 4.13793 30.8571 5.53132Z" fill="white"/>
<path d="M29.1048 54.2153C29.1048 52.8219 29.1048 51.3863 29.1048 49.9929C29.1048 49.3596 29.4096 48.8107 29.981 48.8107C30.5525 48.8107 30.8572 49.3174 30.8572 49.9507C30.8572 52.9064 30.8572 55.862 30.8572 58.8177C30.8572 59.4511 30.5525 60 29.981 60C29.2953 59.9578 29.0667 59.3666 29.1048 58.6488C29.1048 57.171 29.1048 55.6931 29.1048 54.2153Z" fill="white"/>
<path d="M36.6476 20.0563C42.5143 25.5454 41.8286 32.9346 39.0476 37.1147C38.3238 38.1703 37.4096 39.057 36.6096 40.0281C32.2286 40.9571 27.8096 41.2104 23.4286 39.9437C18.1334 35.6791 16.7619 26.1787 23.3905 20.0985C27.7715 18.874 32.1905 18.874 36.6476 20.0563ZM29.9429 19.9718C24.9143 19.9718 20.9143 24.4476 20.9143 30.0211C20.9143 35.5946 24.9524 40.0704 29.9429 40.0704C35.0476 40.0704 39.0857 35.5524 39.0476 29.8944C39.0096 24.2787 35.0476 19.9296 29.9429 19.9718Z" fill="#2FA26C"/>
<path d="M30.019 34.8346C27.619 34.8768 25.6762 32.7657 25.6 30.1056C25.5238 27.4032 27.5428 25.0809 29.9809 25.0809C32.3428 25.0809 34.3238 27.1921 34.4 29.8522C34.4381 32.639 32.5333 34.8346 30.019 34.8346ZM27.3143 29.9367C27.2762 31.4989 28.4952 32.8923 29.9048 32.9768C31.2762 33.0612 32.6095 31.6678 32.6857 30.1478C32.7619 28.5011 31.4667 27.0232 29.9809 27.0232C28.5333 27.0232 27.3143 28.3744 27.3143 29.9367Z" fill="white"/>
</g>
<defs>
<clipPath id="clip0_55_327">
<rect width="60" height="60" fill="white"/>
</clipPath>
</defs>
</svg>
