<svg width="420" height="75" viewBox="0 0 420 75" fill="none" xmlns="http://www.w3.org/2000/svg">
<g clip-path="url(#clip0_147_323)">
<path d="M63.8999 74.1C63.8999 73.7 63.8999 73.4 63.8999 73C63.8999 54.3 63.8999 35.7 63.8999 17C63.8999 16.2 63.8999 16.2 64.6999 16.2C67.4999 16.2 70.3999 16.2 73.1999 16.2C73.7999 16.2 73.7999 16.1 73.7999 16.8C73.7999 18.3 73.7999 19.8 73.7999 21.3C73.7999 21.4 73.7999 21.5 73.8999 21.7C74.0999 21.6 74.0999 21.5 74.2999 21.3C76.7999 18.3 79.9999 16.5 83.8999 15.8C87.4999 15.2 90.9999 15.6 94.3999 17.2C98.6999 19.2 101.5 22.6 103.2 27C104.3 29.7 104.7 32.5 104.7 35.4C104.7 38.6 104.3 41.8 103 44.8C101.5 48.3 99.2999 51.2 95.9999 53.3C92.5999 55.4 88.8999 56.2 84.9999 55.8C81.2999 55.5 78.0999 53.9 75.3999 51.4C74.8999 50.9 74.4999 50.4 73.9999 49.8C73.8999 50.1 73.8999 50.3 73.8999 50.6C73.8999 58.1 73.8999 65.7 73.8999 73.2C73.8999 73.4 73.7999 73.7 73.9999 73.9C70.4999 74.1 67.1999 74.1 63.8999 74.1ZM73.7999 35.9C73.7999 36.1 73.7999 36.2 73.7999 36.4C73.7999 36.7 73.7999 36.9 73.7999 37.2C73.9999 39.6 74.6999 41.7 76.1999 43.6C78.7999 46.8 82.1999 48.1 86.2999 47.2C89.3999 46.5 91.6999 44.6 93.0999 41.7C94.7999 38.3 94.8999 34.8 93.6999 31.3C92.2999 27.3 89.3999 25 85.1999 24.5C80.8999 24.1 77.6999 25.8 75.3999 29.5C74.1999 31.4 73.7999 33.6 73.7999 35.9Z" fill="#010101"/>
<path d="M322.6 0C322.7 0.2 323 0.2 323.2 0.2C326.7 1 328.7 4.6 327.2 8.1C326.3 10.3 324.5 11.4 322.2 11.6C320.5 11.7 319 11.4 317.6 10.3C315.7 8.8 315.1 6.7 315.6 4.4C316.1 2.1 317.6 0.8 319.8 0.2C320 0.1 320.3 0.2 320.4 0C321.2 0 321.9 0 322.6 0Z" fill="#2FA26C"/>
<path d="M266.4 23.8C266.4 24 266.4 24.1 266.4 24.3C266.4 34.4 266.4 44.6 266.4 54.7C266.4 55.6 266.5 55.4 265.7 55.4C262.9 55.4 260.1 55.4 257.3 55.4C257.2 55.4 257 55.4 256.9 55.4C256.7 55.4 256.6 55.3 256.6 55.1C256.6 55 256.6 54.8 256.6 54.7C256.6 38.7 256.6 22.8 256.6 6.79998C256.6 6.09998 256.5 6.09998 257.3 6.09998C260.6 6.09998 263.9 6.09998 267.1 6.09998C267.6 6.09998 267.9 6.29998 268.1 6.79998C273.1 18.6 278.1 30.3 283.2 42.1C283.3 42.3 283.4 42.5 283.5 42.7C283.7 42.6 283.7 42.3 283.8 42.2C288.9 30.4 293.9 18.6 299 6.79998C299.2 6.39998 299.4 6.19998 299.8 6.19998C303.1 6.19998 306.4 6.19998 309.8 6.19998C309.8 6.19998 309.8 6.19998 309.9 6.19998C310.5 6.19998 310.5 6.19998 310.5 6.79998C310.5 12.3 310.5 17.7 310.5 23.2C310.5 33.7 310.5 44.3 310.5 54.8C310.5 55.6 310.6 55.5 309.7 55.5C306.9 55.5 304.1 55.5 301.3 55.5C301.1 55.5 301 55.5 300.8 55.5C300.6 55.5 300.6 55.4 300.6 55.2C300.6 55 300.6 54.9 300.6 54.7C300.6 44.6 300.6 34.6 300.6 24.5C300.6 24.3 300.6 24 300.6 23.7C300.4 23.9 300.3 24.1 300.2 24.3C296 34.4 291.8 44.6 287.7 54.7C287.3 55.6 287.6 55.4 286.6 55.4C284.6 55.4 282.5 55.4 280.5 55.4C279.9 55.4 279.9 55.5 279.7 54.9C275.5 44.7 271.2 34.5 267 24.3C266.9 24.1 266.8 23.9 266.8 23.8C266.5 23.7 266.5 23.7 266.4 23.8Z" fill="#2FA26C"/>
<path d="M0.7 5.30002C2.9 5.30002 5.1 5.20002 7.2 5.20002C11.5 5.10002 15.9 5.00002 20.2 4.90002C20.6 4.90002 20.8 5.10002 21 5.40002C25 11.4 29 17.4 33 23.5C34.1 25.2 35.3 26.9 36.4 28.6C36.8 29.2 36.8 29 36.4 29.6C31 37.8 25.5 46 20 54.2C19.8 54.5 19.6 54.6 19.2 54.6C13 54.6 6.8 54.6 0.6 54.6C0.4 54.6 0.2 54.6 0 54.6C0.1 54.3 0.2 54.1 0.4 54C5.9 46.1 11.3 38.3 16.8 30.4C17.4 29.6 17.4 29.9 16.8 29C11.5 21.3 6.3 13.6 1.1 5.90002C1 5.80002 0.9 5.60002 0.7 5.30002Z" fill="#2FA26C"/>
<path d="M140.7 38.9C141 42.3 142.4 45.1 145.5 46.8C147.5 47.9 149.6 48.1 151.7 47.8C153.5 47.6 155.1 46.8 156.4 45.4C156.9 44.8 157.4 44.2 157.8 43.5C157.9 43.3 158 43.2 158.3 43.2C161.7 43.2 165.1 43.2 168.5 43.2C168.5 43.2 168.5 43.2 168.6 43.2C168.7 43.4 168.6 43.6 168.5 43.7C166.2 50.1 161.8 54.1 155.1 55.6C151 56.5 146.8 56.3 142.9 54.8C137 52.6 133.2 48.3 131.5 42.2C130.6 39.1 130.5 35.9 130.9 32.6C131.3 29.4 132.2 26.5 134 23.8C136.2 20.4 139.3 18 143.2 16.8C147.9 15.3 152.6 15.2 157.3 16.8C163.5 18.9 167.4 23.2 169 29.5C169.7 32.3 169.8 35.3 169.5 38.2C169.4 39 169.5 38.9 168.7 38.9C159.6 38.9 150.6 38.9 141.5 38.9C141.2 38.8 141 38.8 140.7 38.9ZM140.9 32.1C141.1 32.2 141.3 32.1 141.5 32.1C147.3 32.1 153 32.1 158.8 32.1C158.9 32.1 159 32.1 159.2 32.1C159.4 32.1 159.5 32 159.5 31.8C159.5 31.4 159.4 31 159.4 30.6C158.9 27.9 157.4 26 155 24.8C153.1 23.8 151 23.6 148.8 23.8C144.9 24.3 141.4 27.2 140.9 32.1Z" fill="#010101"/>
<path d="M384.1 43.2C383.5 45.4 382.5 47.3 381.1 49.1C378 52.9 374.1 55.2 369.2 55.9C365.6 56.4 362.1 56.2 358.7 55C352.6 52.8 348.7 48.5 347 42.3C346.1 39.3 346 36.1 346.3 33C346.6 30.3 347.3 27.8 348.6 25.4C350.8 21.2 354.2 18.4 358.7 16.9C363.4 15.4 368.1 15.3 372.8 16.9C379 19 382.9 23.3 384.5 29.6C385.2 32.4 385.3 35.4 385 38.3C384.9 39.1 385 39 384.2 39C375.2 39 366.1 39 357.1 39C356.9 39 356.6 39 356.3 39C356.3 39.8 356.5 40.5 356.7 41.3C357.8 45.3 361 47.8 365.2 48C366.3 48 367.4 48 368.4 47.7C370.6 47.1 372.1 45.8 373.2 43.8C373.4 43.4 373.6 43.3 374.1 43.3C377.2 43.3 380.4 43.3 383.5 43.3C383.6 43.1 383.8 43.1 384.1 43.2ZM356.3 32.1C356.5 32.2 356.7 32.2 356.9 32.2C362.7 32.2 368.5 32.2 374.2 32.2C374.3 32.2 374.4 32.2 374.4 32.2C374.7 32.2 374.8 32.1 374.8 31.8C374.6 29.1 373.5 27 371.3 25.5C369.2 24 366.8 23.6 364.2 23.9C360.5 24.2 356.9 27 356.3 32.1Z" fill="#2FA26C"/>
<path d="M176.2 43.1C177.7 43.1 179.2 43.1 180.8 43.1C181.1 43.1 181.2 43.1 181.3 43.4C181.8 46 183.6 47.4 186 48C187.7 48.5 189.4 48.4 191 47.9C191.8 47.7 192.6 47.3 193.2 46.7C194 45.9 194.4 44.9 194.2 43.7C194.1 42.7 193.5 42.1 192.7 41.6C192.1 41.2 191.4 41 190.8 40.7C188.6 39.9 186.4 39.3 184.2 38.8C182.4 38.3 180.7 37.8 179 37.1C177.1 36.3 175.5 35.1 174.1 33.6C173 32.3 172.5 30.9 172.3 29.3C172 26.9 172.2 24.5 173.5 22.4C174.3 21 175.4 19.8 176.7 18.9C178.7 17.5 180.9 16.6 183.2 16.1C186.5 15.5 189.8 15.5 193 16.3C196.5 17.2 199.3 19 201.3 22C202.6 23.9 203.2 26.1 203.4 28.3C203.4 28.5 203.3 28.6 203.1 28.6C203 28.6 203 28.6 202.9 28.6C200 28.6 197.2 28.6 194.3 28.6C194 28.6 193.8 28.5 193.8 28.2C193.4 25.9 192 24.5 189.9 23.8C188.1 23.3 186.3 23.3 184.5 23.8C184 23.9 183.5 24.2 183.1 24.5C181.4 25.7 181.2 28.4 183.1 29.8C183.6 30.2 184.2 30.4 184.8 30.7C186.7 31.5 188.7 32 190.7 32.5C192.8 33 194.8 33.6 196.8 34.4C198.5 35.1 200 36.1 201.3 37.4C202.7 38.8 203.4 40.5 203.7 42.4C204.1 44.8 203.8 47.1 202.6 49.3C201.4 51.5 199.5 53.1 197.3 54.2C195.2 55.2 193 55.7 190.7 55.9C188.1 56.1 185.6 56 183.1 55.4C180 54.6 177.2 53.2 174.9 50.9C172.9 48.9 171.7 46.5 171.4 43.7C171.4 43.6 171.4 43.5 171.4 43.5C171.4 43.1 171.4 43.1 171.8 43.1C173.1 43.1 174.7 43.1 176.2 43.1Z" fill="#010101"/>
<path d="M206.2 43.1C206.4 43 206.6 43 206.8 43C209.7 43 212.7 43 215.6 43C215.7 43 215.8 43 216 43C216.2 43 216.3 43.1 216.3 43.2C216.6 45.5 218.8 47.7 221.9 48.1C223.3 48.3 224.7 48.2 226.1 47.8C226.9 47.6 227.6 47.2 228.2 46.6C229.2 45.7 229.5 44.5 229.2 43.2C229 42.3 228.4 41.7 227.6 41.3C226.7 40.8 225.8 40.5 224.9 40.2C222.8 39.5 220.6 39 218.4 38.4C216.9 38 215.5 37.5 214 36.9C212.6 36.3 211.3 35.5 210.1 34.4C208.6 33 207.7 31.4 207.4 29.4C206.9 26.4 207.4 23.6 209.2 21.1C210.2 19.7 211.4 18.7 212.8 17.8C214.8 16.6 217 15.9 219.2 15.6C221.5 15.3 223.8 15.3 226.2 15.6C229.5 16.1 232.4 17.3 234.8 19.7C236.8 21.7 237.9 24.1 238.4 26.9C238.4 27.2 238.5 27.5 238.5 27.8C238.5 28.3 238.5 28.3 238 28.3C237.9 28.3 237.8 28.3 237.6 28.3C234.9 28.3 232.2 28.3 229.5 28.3C229 28.3 229 28.3 228.9 27.8C228.5 25.6 227.2 24.2 225.2 23.6C223.3 23 221.5 23 219.6 23.6C219 23.8 218.5 24 218.1 24.4C216.4 25.7 216.4 28.2 218.1 29.5C218.6 29.9 219.2 30.2 219.9 30.4C221.8 31.2 223.8 31.7 225.8 32.2C227.9 32.7 229.9 33.3 231.9 34.1C233.6 34.8 235.1 35.8 236.4 37.2C237.6 38.5 238.4 40 238.7 41.8C239.3 45.4 238.5 48.7 235.9 51.4C234.9 52.5 233.6 53.3 232.3 54C230.3 55 228.1 55.5 225.8 55.7C223.2 55.9 220.6 55.8 218 55.2C214.9 54.4 212.1 53 209.9 50.7C207.7 48.8 206.4 46.2 206.2 43.1Z" fill="#010101"/>
<path d="M391.7 43.1C393.2 43.1 394.7 43.1 396.3 43.1C396.6 43.1 396.7 43.1 396.8 43.4C397.3 45.8 398.9 47.2 401.1 47.9C402.9 48.5 404.8 48.4 406.7 47.9C407.5 47.7 408.1 47.3 408.7 46.7C410.2 45.4 410.4 42.7 408 41.5C406.6 40.8 405.2 40.4 403.7 39.9C401.7 39.3 399.6 38.8 397.5 38.2C396.5 37.9 395.4 37.5 394.4 37.1C392.5 36.3 390.9 35.1 389.5 33.6C388.4 32.3 387.8 30.7 387.6 29.1C387.3 26.8 387.6 24.5 388.7 22.5C389.8 20.5 391.4 19 393.4 17.9C395.5 16.7 397.8 16.1 400.3 15.8C402.3 15.6 404.4 15.6 406.4 15.9C409.7 16.4 412.7 17.6 415.1 20C417 21.9 418.1 24.2 418.5 26.8C418.6 27.3 418.6 27.8 418.7 28.3C418.7 28.5 418.7 28.6 418.4 28.6C418.3 28.6 418.2 28.6 418.2 28.6C415.4 28.6 412.6 28.6 409.8 28.6C409.3 28.6 409.3 28.6 409.2 28.2C408.8 25.9 407.5 24.6 405.3 23.9C403.5 23.3 401.6 23.4 399.8 23.9C399.3 24 398.9 24.3 398.4 24.6C396.7 25.8 396.5 28.6 398.4 29.9C399 30.3 399.7 30.6 400.3 30.9C402.3 31.7 404.3 32.2 406.3 32.7C408.2 33.2 410.1 33.8 411.9 34.5C413.8 35.3 415.4 36.4 416.7 38C418 39.5 418.7 41.3 418.8 43.3C418.9 44.5 418.9 45.6 418.6 46.8C417.9 49.7 416.2 51.9 413.8 53.5C411.8 54.8 409.6 55.5 407.2 55.9C404.1 56.4 401.1 56.3 398 55.6C394.9 54.8 392.1 53.4 389.8 51.1C387.8 49.1 386.6 46.7 386.3 43.9C386.3 43.8 386.3 43.7 386.3 43.7C386.3 43.3 386.3 43.3 386.7 43.3C388.6 43.1 390.1 43.1 391.7 43.1Z" fill="#2FA26C"/>
<path d="M332.6 29.2C332.6 20.7 332.6 12.3 332.6 3.80001C332.6 3.00001 332.5 3.10001 333.3 3.10001C336.1 3.10001 338.9 3.10001 341.7 3.10001C341.8 3.10001 342 3.10001 342.1 3.10001C342.3 3.10001 342.4 3.20001 342.4 3.40001C342.4 3.60001 342.4 3.70001 342.4 3.90001C342.4 20.8 342.4 37.7 342.4 54.7C342.4 55.6 342.5 55.4 341.6 55.4C338.8 55.4 336 55.4 333.2 55.4C333 55.4 332.9 55.4 332.7 55.4C332.6 55.4 332.5 55.3 332.5 55.2C332.5 55 332.5 54.8 332.5 54.7C332.6 46.2 332.6 37.7 332.6 29.2Z" fill="#2FA26C"/>
<path d="M118.1 22.2C118.3 22 118.4 21.8 118.5 21.7C121.2 17.9 124.9 15.9 129.6 15.8C130.1 15.8 130.1 15.8 130.1 16.3C130.1 19.4 130.1 22.5 130.1 25.6C130.1 26.1 130.1 26.1 129.6 26.1C128.3 26.1 127.1 26.1 125.8 26.2C124.8 26.3 123.8 26.5 122.8 26.9C120.3 27.8 119 29.6 118.4 32.1C118.1 33.3 118 34.5 118 35.6C118 42 118 48.3 118 54.7C118 55.5 118.1 55.4 117.3 55.4C114.4 55.4 111.6 55.4 108.7 55.4C108.6 55.4 108.4 55.4 108.3 55.4C108.1 55.4 108 55.3 108 55.2C108 55 108 54.9 108 54.7C108 42.1 108 29.6 108 17C108 16.9 108 16.8 108 16.7C108 16.4 108.1 16.3 108.4 16.3C111.4 16.3 114.5 16.3 117.5 16.3C117.8 16.3 117.9 16.4 117.9 16.7C118.1 18.5 118.1 20.3 118.1 22.2Z" fill="#010101"/>
<path d="M326.4 35.9C326.4 42.1 326.4 48.3 326.4 54.5C326.4 54.6 326.4 54.7 326.4 54.9C326.4 55.4 326.4 55.4 325.9 55.4C323 55.4 320 55.4 317.1 55.4C316.5 55.4 316.5 55.5 316.5 54.8C316.5 47.4 316.5 40 316.5 32.6C316.5 27.4 316.5 22.3 316.5 17.1C316.5 17 316.5 16.9 316.5 16.7C316.5 16.2 316.5 16.2 317 16.2C319.9 16.2 322.9 16.2 325.8 16.2C326.4 16.2 326.4 16.2 326.4 16.8C326.4 23.2 326.4 29.6 326.4 35.9Z" fill="#2FA26C"/>
<path d="M57.1998 4.90002C53.5998 10.2 50.0998 15.4 46.4998 20.6C42.8998 15.3 39.3998 10.1 35.7998 4.90002C42.8998 4.90002 49.9998 4.90002 57.1998 4.90002Z" fill="#010101"/>
<path d="M57.1002 54.5C49.9002 54.5 42.9002 54.5 35.7002 54.5C39.3002 49.2 42.8002 44 46.4002 38.8C50.0002 44 53.6002 49.2 57.1002 54.5Z" fill="#010101"/>
</g>
<defs>
<clipPath id="clip0_147_323">
<rect width="419.1" height="74.1" fill="white"/>
</clipPath>
</defs>
</svg>
